<svg width="24" height="10" viewBox="0 0 24 10" fill="none" xmlns="http://www.w3.org/2000/svg">
<g id="icon_key_button 1" clip-path="url(#clip0_35_385)">
<g id="Laag 2">
<g id="Laag 1">
<g id="Laag 2_2">
<g id="Laag 1-2">
<path id="Vector" d="M23.37 5.37H23.91V4.5H14.82V4.07H14V4.5H8.59V4.07H7.75V4.5H6.58C6.77663 4.25653 6.92332 3.97667 7.01166 3.67644C7.1 3.37621 7.12826 3.0615 7.09482 2.75034C7.06138 2.43917 6.9669 2.13766 6.81679 1.86305C6.66667 1.58844 6.46387 1.34614 6.22 1.15C5.812 0.826794 5.31031 0.644364 4.79 0.630005C4.16214 0.637832 3.56235 0.891407 3.11929 1.33634C2.67623 1.78127 2.42518 2.38212 2.42 3.01V3.17C2.24533 3.1006 2.05768 3.06989 1.87 3.08C1.37313 3.08265 0.897508 3.28188 0.547099 3.63417C0.196691 3.98645 -7.02905e-06 4.46313 1.88393e-10 4.96C0.0018325 5.45831 0.199353 5.93595 0.55 6.29C0.909723 6.63203 1.38378 6.82807 1.88 6.84C2.06702 6.84028 2.25282 6.80988 2.43 6.75V6.91001C2.41381 7.29976 2.49367 7.68752 2.66255 8.03915C2.83143 8.39079 3.08415 8.69553 3.39848 8.92654C3.7128 9.15756 4.07909 9.30777 4.46511 9.36397C4.85113 9.42016 5.24505 9.38061 5.61219 9.24879C5.97933 9.11697 6.30845 8.89693 6.57057 8.60803C6.83269 8.31913 7.01978 7.97024 7.11538 7.59204C7.21097 7.21385 7.21214 6.81795 7.11879 6.4392C7.02543 6.06045 6.84041 5.71045 6.58 5.42L7.77 5.33V5.73H8.61V5.38H14V5.71H14.84L14.89 5.32H18.29V8.79H23.4L23.37 5.37ZM1.85 5.95001C1.69254 5.93844 1.54006 5.88976 1.40503 5.80795C1.26999 5.72613 1.15625 5.6135 1.07311 5.47929C0.989973 5.34507 0.939794 5.19307 0.926684 5.03573C0.913573 4.87839 0.937903 4.72019 0.997683 4.57406C1.05746 4.42793 1.15099 4.29803 1.27062 4.19499C1.39025 4.09196 1.53257 4.01871 1.68595 3.98125C1.83932 3.94379 1.99939 3.94317 2.15304 3.97946C2.3067 4.01574 2.44958 4.08789 2.57 4.19C2.66077 4.27979 2.73521 4.38469 2.79 4.5H2.11V5.35H2.78C2.7313 5.46334 2.65982 5.56545 2.57 5.65C2.47845 5.74863 2.3668 5.82645 2.24259 5.87821C2.11837 5.92997 1.98449 5.95445 1.85 5.95001ZM3.23 2.95C3.22351 2.7471 3.25827 2.54498 3.33218 2.3559C3.40609 2.16682 3.51762 1.99472 3.66 1.85C3.84226 1.67632 4.06608 1.55236 4.31 1.49V1.94H5.15V1.49C5.40212 1.55017 5.63138 1.68217 5.81 1.87C5.99075 2.04687 6.12484 2.26578 6.20028 2.50715C6.27572 2.74853 6.29015 3.00483 6.24228 3.25315C6.19442 3.50146 6.08575 3.73404 5.926 3.93008C5.76625 4.12612 5.5604 4.27951 5.32686 4.37651C5.09332 4.47352 4.83937 4.51113 4.58774 4.48598C4.33611 4.46082 4.09464 4.37368 3.88492 4.23236C3.67521 4.09104 3.50379 3.89994 3.38601 3.67615C3.26823 3.45237 3.20776 3.20288 3.21 2.95H3.23ZM6.29 6.85C6.29634 7.1918 6.18728 7.52576 5.98043 7.79793C5.77358 8.0701 5.48102 8.2646 5.15 8.35V7.91001H4.31V8.37C4.04561 8.28196 3.81051 8.12292 3.6304 7.91028C3.45029 7.69764 3.3321 7.43958 3.28876 7.1643C3.24541 6.88903 3.27857 6.60713 3.38462 6.34943C3.49067 6.09173 3.66552 5.86814 3.89006 5.70311C4.1146 5.53807 4.38018 5.43794 4.65779 5.41365C4.9354 5.38937 5.21434 5.44187 5.46412 5.56541C5.71391 5.68895 5.92493 5.87878 6.07411 6.11416C6.22329 6.34953 6.30489 6.62138 6.31 6.9L6.29 6.85ZM20.4 7.96V7.03H21.21V7.96H20.4ZM22.05 6.19H19.56V7.97001H19.06V5.34H22.55V7.94H22.05V6.19Z" fill="#BD944E"/>
</g>
</g>
</g>
</g>
</g>
<defs>
<clipPath id="clip0_35_385">
<rect width="23.91" height="8.74" fill="white" transform="translate(0 0.630005)"/>
</clipPath>
</defs>
</svg>
