<svg width="60" height="22" viewBox="0 0 60 22" fill="none" xmlns="http://www.w3.org/2000/svg">
<g id="icon_key_button 1" clip-path="url(#clip0_37_6)">
<g id="Laag 2">
<g id="Laag 1">
<g id="Laag 2_2">
<g id="Laag 1-2">
<path id="Vector" d="M58.6449 11.8946H60V9.71142H37.1895V8.63237H35.1317V9.71142H21.5558V8.63237H19.4479V9.71142H16.5119C17.0054 9.10045 17.3734 8.39816 17.5951 7.64476C17.8168 6.89136 17.8877 6.10163 17.8038 5.32079C17.7199 4.53994 17.4828 3.78331 17.1061 3.09421C16.7294 2.40511 16.2205 1.79707 15.6085 1.30489C14.5847 0.493824 13.3258 0.0360335 12.0201 0C10.4445 0.0196423 8.93941 0.655966 7.82759 1.77248C6.71576 2.889 6.08578 4.39677 6.07277 5.9724V6.3739C5.63445 6.19973 5.16357 6.12268 4.6926 6.14806C3.44574 6.15469 2.25221 6.65465 1.3729 7.53868C0.493577 8.4227 -1.76388e-05 9.61887 4.72754e-10 10.8657C0.0045985 12.1162 0.500257 13.3148 1.38018 14.2033C2.28287 15.0615 3.47246 15.5535 4.71769 15.5834C5.18701 15.5841 5.65325 15.5078 6.09787 15.3576V15.7591C6.05724 16.7371 6.25763 17.7102 6.68142 18.5926C7.10521 19.475 7.7394 20.2397 8.52817 20.8194C9.31694 21.3991 10.2361 21.7761 11.2048 21.9171C12.1735 22.0581 13.162 21.9588 14.0833 21.6281C15.0046 21.2973 15.8305 20.7451 16.4882 20.0201C17.146 19.2952 17.6155 18.4197 17.8554 17.4706C18.0953 16.5216 18.0982 15.5281 17.864 14.5777C17.6297 13.6272 17.1654 12.7489 16.5119 12.0201L19.4981 11.7942V12.798H21.606V11.9197H35.1317V12.7478H37.2397L37.3651 11.7691H45.8971V20.4768H58.7202L58.6449 11.8946ZM4.64241 13.3501C4.24728 13.3211 3.86463 13.1989 3.52578 12.9936C3.18694 12.7883 2.90152 12.5056 2.69288 12.1688C2.48425 11.832 2.35833 11.4506 2.32543 11.0558C2.29253 10.6609 2.35358 10.2639 2.5036 9.89725C2.65361 9.53055 2.88831 9.20458 3.18851 8.94602C3.4887 8.68746 3.84585 8.50366 4.23073 8.40965C4.61561 8.31564 5.01728 8.31409 5.40287 8.40515C5.78846 8.4962 6.14701 8.67725 6.44918 8.9335C6.67696 9.1588 6.86377 9.42204 7.00126 9.71142H5.29486V11.8444H6.97616C6.85395 12.1288 6.67458 12.3851 6.44918 12.5972C6.21946 12.8447 5.93927 13.04 5.62757 13.1699C5.31586 13.2998 4.97991 13.3612 4.64241 13.3501ZM8.1054 5.82183C8.0891 5.31265 8.17633 4.80546 8.36181 4.33099C8.54729 3.85651 8.82715 3.42462 9.18444 3.06148C9.64182 2.62564 10.2035 2.31457 10.8156 2.15809V3.28733H12.9235V2.15809C13.5561 2.30908 14.1315 2.64032 14.5797 3.11167C15.0332 3.5555 15.3697 4.10483 15.559 4.71053C15.7483 5.31624 15.7846 5.95942 15.6645 6.58254C15.5443 7.20567 15.2717 7.78931 14.8708 8.28125C14.4699 8.77319 13.9533 9.15809 13.3673 9.40153C12.7812 9.64496 12.144 9.73934 11.5125 9.67621C10.8811 9.61308 10.2751 9.39442 9.74887 9.03979C9.22261 8.68515 8.79246 8.20561 8.4969 7.64404C8.20134 7.08247 8.04958 6.4564 8.05521 5.82183H8.1054ZM15.7842 15.6085C15.8001 16.4662 15.5264 17.3043 15.0073 17.9873C14.4883 18.6703 13.7541 19.1583 12.9235 19.3726V18.2685H10.8156V19.4228C10.1521 19.2019 9.56213 18.8028 9.11016 18.2692C8.65819 17.7356 8.36161 17.088 8.25284 16.3972C8.14407 15.7065 8.22728 14.9991 8.4934 14.3524C8.75951 13.7057 9.19828 13.1446 9.76175 12.7305C10.3252 12.3164 10.9917 12.0651 11.6883 12.0041C12.3849 11.9432 13.0849 12.0749 13.7117 12.385C14.3385 12.695 14.8681 13.1713 15.2424 13.762C15.6168 14.3526 15.8216 15.0348 15.8344 15.734L15.7842 15.6085ZM51.192 18.394V16.0602H53.2246V18.394H51.192ZM55.3325 13.9523H49.0841V18.4191H47.8294V11.8193H56.5872V18.3438H55.3325V13.9523Z" fill="#BD944E"/>
</g>
</g>
</g>
</g>
</g>
<defs>
<clipPath id="clip0_37_6">
<rect width="60" height="21.9322" fill="white"/>
</clipPath>
</defs>
</svg>
