<svg width="38" height="39" viewBox="0 0 38 39" fill="none" xmlns="http://www.w3.org/2000/svg">
<g clip-path="url(#clip0_43_715)">
<path d="M34.0777 18.9475L34.835 18.9077L34.835 17.712L22.0309 17.7219V17.1041L20.8452 17.1141L20.8452 17.712L13.2524 17.712L13.2624 17.1041L12.0667 17.1041L12.0766 17.712L10.4226 17.712C10.8129 17.2252 11.0597 16.6392 11.1352 16.0198C11.2107 15.4005 11.1119 14.7723 10.85 14.206C10.5881 13.6397 10.1734 13.1577 9.6525 12.8142C9.13164 12.4707 8.52528 12.2793 7.9016 12.2615C7.01527 12.2667 6.16672 12.6211 5.53998 13.2479C4.91324 13.8746 4.55883 14.7232 4.55361 15.6095L4.56357 15.8387C4.31916 15.7442 4.05819 15.7002 3.79632 15.7091C3.09441 15.7125 2.4222 15.9928 1.92587 16.4892C1.42953 16.9855 1.1492 17.6577 1.14583 18.3596C1.15073 19.0615 1.42962 19.7337 1.92304 20.2329C2.42224 20.7263 3.09444 21.0052 3.79632 21.0101C4.0573 21.0076 4.31623 20.9639 4.56357 20.8806L4.55361 21.1098C4.53502 21.6568 4.6506 22.2001 4.89027 22.6922C5.12993 23.1843 5.4864 23.6102 5.92855 23.9329C6.3707 24.2555 6.88511 24.465 7.42686 24.5431C7.96861 24.6213 8.52125 24.5656 9.03653 24.381C9.55182 24.1964 10.0141 23.8885 10.383 23.4841C10.7519 23.0798 11.0163 22.5913 11.153 22.0613C11.2897 21.5313 11.2946 20.9759 11.1673 20.4435C11.04 19.9112 10.7843 19.4181 10.4226 19.0073L12.0966 18.8877L12.0966 19.4457L13.2723 19.4457L13.3022 18.9575L20.895 18.9575L20.8053 19.4258L21.9911 19.4358L22.0608 18.8877H26.8437L26.8138 23.7802L34.1176 23.7902L34.0777 18.9475ZM3.7465 19.7646C3.52553 19.7461 3.31203 19.6758 3.12338 19.5592C2.93472 19.4427 2.77623 19.2833 2.66078 19.094C2.54533 18.9047 2.47619 18.6908 2.45899 18.4697C2.44178 18.2486 2.47698 18.0266 2.56174 17.8217C2.6465 17.6168 2.77843 17.4348 2.94678 17.2905C3.11513 17.1461 3.31517 17.0436 3.53062 16.9911C3.74608 16.9387 3.97086 16.9378 4.18671 16.9886C4.40256 17.0394 4.60337 17.1405 4.77282 17.2835C4.89777 17.4091 5.00203 17.5537 5.08171 17.712L4.12514 17.712L4.12514 18.9077L5.06179 18.9077C4.99739 19.0696 4.89883 19.2157 4.77282 19.3361C4.63977 19.4734 4.48016 19.5822 4.30372 19.6559C4.12728 19.7296 3.93769 19.7665 3.7465 19.7646ZM5.6995 15.5597C5.68951 15.2737 5.73731 14.9886 5.84003 14.7215C5.94276 14.4545 6.0983 14.2108 6.29735 14.0052C6.55321 13.7492 6.87331 13.5668 7.22403 13.4771L7.234 14.1049L8.41974 14.0949L8.41974 13.4771C8.77238 13.5619 9.09372 13.7451 9.34642 14.0052C9.59801 14.2556 9.7839 14.5642 9.88759 14.9037C9.99127 15.2431 10.0095 15.6029 9.94079 15.9512C9.87203 16.2994 9.71837 16.6252 9.49344 16.8998C9.26851 17.1744 8.97927 17.3892 8.6514 17.5251C8.32353 17.6611 7.96717 17.7139 7.61394 17.6791C7.26072 17.6443 6.92156 17.5227 6.62657 17.3253C6.33159 17.1279 6.0899 16.8608 5.92296 16.5475C5.75602 16.2343 5.66899 15.8847 5.6696 15.5298L5.6995 15.5597ZM10.0041 21.0599C10.0131 21.54 9.85948 22.009 9.56823 22.3907C9.27698 22.7724 8.8652 23.0443 8.39981 23.1624V22.5247L7.22403 22.5247L7.22403 23.1624C6.84226 23.0514 6.49893 22.8362 6.23249 22.5411C5.96604 22.246 5.78699 21.8826 5.71539 21.4915C5.64378 21.1004 5.68245 20.6971 5.82705 20.3267C5.97165 19.9564 6.21649 19.6335 6.53415 19.3944C6.85181 19.1553 7.22975 19.0093 7.62567 18.9729C8.02158 18.9364 8.41984 19.0108 8.77586 19.1878C9.13188 19.3648 9.43161 19.6374 9.64148 19.9751C9.85136 20.3128 9.9631 20.7022 9.9642 21.0998L10.0041 21.0599ZM29.8927 22.5944L29.8927 21.2792H31.0287L31.0287 22.5944H29.8927ZM32.2144 20.0934L28.707 20.0934L28.707 22.6044L27.9995 22.5944L28.0294 18.8778L32.9518 18.8778L32.9518 22.5645L32.2443 22.5745L32.2144 20.0934Z" fill="#BD944E"/>
</g>
<defs>
<clipPath id="clip0_43_715">
<rect width="28" height="25.0549" fill="white" transform="translate(17.7164 0.593262) rotate(45)"/>
</clipPath>
</defs>
</svg>
