<svg width="20" height="20" viewBox="0 0 20 20" fill="none" xmlns="http://www.w3.org/2000/svg">
<g clip-path="url(#clip0_15_264)">
<path d="M14.1667 1.66667C15.2707 1.66999 16.3286 2.11004 17.1093 2.89072C17.89 3.67141 18.33 4.72929 18.3333 5.83333V14.1667C18.33 15.2707 17.89 16.3286 17.1093 17.1093C16.3286 17.89 15.2707 18.33 14.1667 18.3333H5.83333C4.72929 18.33 3.67141 17.89 2.89072 17.1093C2.11004 16.3286 1.66999 15.2707 1.66667 14.1667V5.83333C1.66999 4.72929 2.11004 3.67141 2.89072 2.89072C3.67141 2.11004 4.72929 1.66999 5.83333 1.66667H14.1667ZM14.1667 0H5.83333C4.28774 0.00488343 2.80684 0.621033 1.71394 1.71394C0.621033 2.80684 0.00488343 4.28774 0 5.83333V14.1667C0.00488343 15.7123 0.621033 17.1932 1.71394 18.2861C2.80684 19.379 4.28774 19.9951 5.83333 20H14.1667C15.7123 19.9951 17.1932 19.379 18.2861 18.2861C19.379 17.1932 19.9951 15.7123 20 14.1667V5.83333C19.9951 4.28774 19.379 2.80684 18.2861 1.71394C17.1932 0.621033 15.7123 0.00488343 14.1667 0Z" fill="#009FE3"/>
<path d="M15.417 5.83332C15.1696 5.83347 14.9278 5.76024 14.7221 5.6229C14.5163 5.48557 14.3559 5.29029 14.2612 5.06179C14.1665 4.83328 14.1417 4.58181 14.1899 4.3392C14.2381 4.09658 14.3572 3.87372 14.5321 3.69881C14.707 3.52389 14.9299 3.40479 15.1725 3.35657C15.4151 3.30835 15.6666 3.33317 15.8951 3.4279C16.1236 3.52263 16.3189 3.68301 16.4562 3.88874C16.5936 4.09448 16.6668 4.33633 16.6666 4.58369C16.667 4.74791 16.635 4.91058 16.5723 5.06237C16.5096 5.21415 16.4176 5.35207 16.3015 5.46818C16.1854 5.5843 16.0475 5.67633 15.8957 5.73899C15.7439 5.80166 15.5812 5.83371 15.417 5.83332Z" fill="#009FE3"/>
<path d="M10 6.66667C10.6593 6.66667 11.3037 6.86216 11.8519 7.22843C12.4001 7.59471 12.8273 8.1153 13.0796 8.72439C13.3319 9.33348 13.3979 10.0037 13.2693 10.6503C13.1407 11.2969 12.8232 11.8908 12.357 12.357C11.8908 12.8232 11.2969 13.1407 10.6503 13.2693C10.0037 13.3979 9.33348 13.3319 8.72439 13.0796C8.1153 12.8273 7.59471 12.4001 7.22844 11.8519C6.86217 11.3037 6.66667 10.6593 6.66667 10C6.66667 9.11594 7.01786 8.2681 7.64298 7.64298C8.2681 7.01786 9.11595 6.66667 10 6.66667ZM10 5C9.0111 5 8.0444 5.29324 7.22215 5.84265C6.3999 6.39206 5.75904 7.17295 5.3806 8.08658C5.00217 9.00021 4.90315 10.0055 5.09608 10.9755C5.289 11.9454 5.76521 12.8363 6.46447 13.5355C7.16373 14.2348 8.05465 14.711 9.02455 14.9039C9.99445 15.0969 10.9998 14.9978 11.9134 14.6194C12.827 14.241 13.6079 13.6001 14.1573 12.7779C14.7068 11.9556 15 10.9889 15 10C14.9996 8.67404 14.4727 7.4025 13.5351 6.4649C12.5975 5.5273 11.326 5.00039 10 5Z" fill="#009FE3"/>
</g>
<defs>
<clipPath id="clip0_15_264">
<rect width="20" height="20" fill="white"/>
</clipPath>
</defs>
</svg>
