<svg width="65" height="65" viewBox="0 0 65 65" fill="none" xmlns="http://www.w3.org/2000/svg">
<g id="ion:ear-outline">
<path id="Vector" d="M42.465 42.1419C48.2162 38.2344 52.5 32.2144 52.5 24.7969C52.5 19.4925 50.3929 14.4055 46.6421 10.6547C42.8914 6.90401 37.8043 4.79688 32.5 4.79688C27.1957 4.79688 22.1086 6.90401 18.3579 10.6547C14.6071 14.4055 12.5 19.4925 12.5 24.7969V50.6181C12.5 56.1506 16.9675 60.7969 22.5 60.7969C28.0325 60.7969 30.8537 57.5544 32.1612 55.7969C34.0075 53.3206 37.375 45.6019 42.465 42.1419Z" stroke="#BD944E" stroke-width="2" stroke-linecap="round" stroke-linejoin="round"/>
<path id="Vector_2" d="M20.5 38.7969V23.7969C20.5 17.7469 25.9 12.7969 32.5 12.7969C39.1 12.7969 44.5 17.7469 44.5 23.7969" stroke="#BD944E" stroke-width="2" stroke-linecap="round" stroke-linejoin="round"/>
<path id="Vector_3" d="M20.5 30.6719C23.625 28.4219 30.4775 28.7969 30.4775 28.7969C33.7275 28.7969 35.6238 32.4744 33.7275 35.1219C33.7275 35.1219 29.12 40.4219 28.495 42.7969" stroke="#BD944E" stroke-width="2" stroke-linecap="round" stroke-linejoin="round"/>
</g>
</svg>
