<svg width="65" height="65" viewBox="0 0 65 65" fill="none" xmlns="http://www.w3.org/2000/svg">
<g id="ion:trail-sign-outline">
<path id="Vector" d="M32.5 50.7969V58.7969M32.5 26.7969V34.7969M32.5 6.79688V10.7969M52.5 26.7969H13.3287C13.0659 26.7969 12.8057 26.7452 12.5629 26.6446C12.3201 26.544 12.0995 26.3965 11.9137 26.2106L4.5 18.7969L11.9137 11.3831C12.0995 11.1972 12.3201 11.0498 12.5629 10.9492C12.8057 10.8486 13.0659 10.7968 13.3287 10.7969H52.5C53.0304 10.7969 53.5391 11.0076 53.9142 11.3827C54.2893 11.7577 54.5 12.2664 54.5 12.7969V24.7969C54.5 25.3273 54.2893 25.836 53.9142 26.2111C53.5391 26.5862 53.0304 26.7969 52.5 26.7969ZM12.5 50.7969H51.6712C51.9341 50.7969 52.1943 50.7452 52.4371 50.6446C52.6799 50.544 52.9005 50.3965 53.0863 50.2106L60.5 42.7969L53.0863 35.3831C52.9005 35.1972 52.6799 35.0498 52.4371 34.9492C52.1943 34.8486 51.9341 34.7968 51.6712 34.7969H12.5C11.9696 34.7969 11.4609 35.0076 11.0858 35.3827C10.7107 35.7577 10.5 36.2664 10.5 36.7969V48.7969C10.5 49.3273 10.7107 49.836 11.0858 50.2111C11.4609 50.5862 11.9696 50.7969 12.5 50.7969Z" stroke="#BD944E" stroke-width="2" stroke-linecap="round" stroke-linejoin="round"/>
</g>
</svg>
