<svg width="65" height="65" viewBox="0 0 65 65" fill="none" xmlns="http://www.w3.org/2000/svg">
<g id="ion:mail-open-outline">
<path id="Vector" d="M55.95 22.248L34.1087 11.468C33.6861 11.2596 33.2212 11.1511 32.75 11.1511C32.2788 11.1511 31.8139 11.2596 31.3913 11.468L9.55 22.248C8.71268 22.6583 8.00676 23.2945 7.51198 24.0849C7.01719 24.8752 6.75326 25.7881 6.75 26.7205V49.7968C6.75 52.558 9.0175 54.7968 11.815 54.7968H53.69C56.4875 54.7968 58.755 52.558 58.755 49.7968V26.7205C58.7513 25.7876 58.4866 24.8743 57.9909 24.0839C57.4952 23.2935 56.7883 22.6576 55.95 22.248Z" stroke="#BD944E" stroke-width="2" stroke-linecap="round" stroke-linejoin="round"/>
<path id="Vector_2" d="M50.416 46.7969L34.2585 34.2294C33.7319 33.8198 33.0838 33.5974 32.4166 33.5974C31.7495 33.5974 31.1014 33.8198 30.5748 34.2294L14.416 46.7969M39.416 37.6719L56.416 24.7969M8.41602 24.7969L25.791 37.9219" stroke="#BD944E" stroke-width="2" stroke-linecap="round" stroke-linejoin="round"/>
</g>
</svg>
