<svg width="65" height="65" viewBox="0 0 65 65" fill="none" xmlns="http://www.w3.org/2000/svg">
<g id="ion:ribbon-outline">
<path id="Vector" d="M32.5 36.7969C41.3366 36.7969 48.5 29.6334 48.5 20.7969C48.5 11.9603 41.3366 4.79688 32.5 4.79688C23.6634 4.79688 16.5 11.9603 16.5 20.7969C16.5 29.6334 23.6634 36.7969 32.5 36.7969Z" stroke="#BD944E" stroke-width="2" stroke-linecap="round" stroke-linejoin="round"/>
<path id="Vector_2" d="M18.4562 29.2744L6.5 50.7969L17.3575 50.7444C17.7054 50.7427 18.0477 50.8317 18.3506 51.0027C18.6536 51.1736 18.9067 51.4207 19.085 51.7194L24.5 60.7969L35.5412 36.5069" stroke="#BD944E" stroke-width="2" stroke-linecap="round" stroke-linejoin="round"/>
<path id="Vector_3" d="M46.3175 28.7969L58.5 50.7969L47.6425 50.7444C47.2946 50.7426 46.9523 50.8316 46.6494 51.0026C46.3464 51.1736 46.0933 51.4207 45.915 51.7194L40.5 60.7969L32.5 43.1969" stroke="#BD944E" stroke-width="2" stroke-linecap="round" stroke-linejoin="round"/>
<path id="Vector_4" d="M32.5 28.7969C36.9183 28.7969 40.5 25.2152 40.5 20.7969C40.5 16.3786 36.9183 12.7969 32.5 12.7969C28.0817 12.7969 24.5 16.3786 24.5 20.7969C24.5 25.2152 28.0817 28.7969 32.5 28.7969Z" stroke="#BD944E" stroke-width="2" stroke-linecap="round" stroke-linejoin="round"/>
</g>
</svg>
