<svg width="343" height="623" viewBox="0 0 343 623" fill="none" xmlns="http://www.w3.org/2000/svg">
<g opacity="0.2" clip-path="url(#clip0_50_8625)">
<path d="M16.4178 39.591L15.849 26.6305L-4.6054 26.452L-6.34645 245.486L-16.9146 245.394L-16.9211 265.679L-6.69393 265.769L-7.82745 395.654L-18.2236 395.393L-18.4021 415.847L-8.00298 415.768L-8.24993 444.063C-16.5187 437.313 -26.5064 433.004 -37.09 431.62C-47.6737 430.236 -58.4336 431.832 -68.1601 436.228C-77.8865 440.624 -86.1938 447.646 -92.148 456.505C-98.1021 465.363 -101.467 475.708 -101.864 486.374C-101.907 501.537 -95.9713 516.105 -85.3435 526.92C-74.7157 537.735 -60.253 543.924 -45.0918 544.146L-41.1698 544.01C-42.8217 548.177 -43.6143 552.634 -43.5003 557.115C-43.5474 569.123 -38.8523 580.664 -30.4359 589.229C-22.0194 597.793 -10.5622 602.689 1.44461 602.852C13.4521 602.873 24.9927 598.202 33.6059 589.836C42.1211 581.37 46.9923 569.913 47.1809 557.907C47.1764 553.442 46.4673 549.006 45.0796 544.762L48.9985 544.967C58.3536 545.367 67.6644 543.471 76.1182 539.444C84.572 535.418 91.9118 529.384 97.497 521.868C103.082 514.353 106.743 505.584 108.16 496.329C109.577 487.073 108.708 477.611 105.627 468.768C102.546 459.926 97.3478 451.972 90.486 445.601C83.6241 439.23 75.3072 434.635 66.261 432.217C57.2149 429.799 47.7144 429.633 38.589 431.731C29.4635 433.83 20.9903 438.13 13.909 444.256L12.1135 415.602L21.6589 415.686L21.8344 395.572L13.4867 394.988L14.6202 265.102L22.6181 266.706L22.9656 246.424L13.601 245.149L14.3151 163.331L98.0032 164.573L99.2641 39.6321L16.4178 39.591ZM25.8668 558.573C25.5178 562.35 24.2823 565.992 22.2608 569.202C20.2392 572.412 17.4887 575.099 14.2329 577.046C10.977 578.992 7.30773 580.143 3.52334 580.405C-0.261051 580.666 -4.0537 580.031 -7.54626 578.55C-11.0388 577.07 -14.1327 574.786 -16.5763 571.884C-19.0199 568.983 -20.7443 565.545 -21.6093 561.852C-22.4742 558.159 -22.4553 554.313 -21.5541 550.628C-20.6529 546.943 -18.8949 543.523 -16.4229 540.646C-14.2555 538.527 -11.7661 536.765 -9.04726 535.426L-9.19007 551.789L11.2643 551.968L11.4042 535.945C14.1647 537.071 16.65 538.779 18.6905 540.952C21.0195 543.249 22.8568 545.996 24.0906 549.025C25.3243 552.054 25.9286 555.303 25.8668 558.573ZM-45.773 524.536C-50.6667 524.665 -55.5359 523.804 -60.0895 522.007C-64.6431 520.21 -68.7873 517.513 -72.2744 514.077C-76.6168 509.662 -79.6896 504.159 -81.1701 498.146L-70.4301 498.069L-70.4235 477.784L-80.9916 477.692C-79.4883 471.672 -76.3077 466.202 -71.8192 461.918C-67.4988 457.652 -62.1919 454.518 -56.3695 452.795C-50.5471 451.072 -44.3894 450.813 -38.4429 452.041C-32.4964 453.27 -26.9451 455.947 -22.2818 459.836C-17.6185 463.724 -13.9873 468.704 -11.7107 474.333C-9.43409 479.962 -8.58241 486.066 -9.23126 492.103C-9.88011 498.141 -12.0094 503.924 -15.4302 508.941C-18.851 513.958 -23.4574 518.052 -28.8406 520.861C-34.2237 523.67 -40.2171 525.107 -46.2888 525.043L-45.773 524.536ZM48.9599 451.722C57.1731 451.639 65.1728 454.337 71.6588 459.376C78.1449 464.415 82.736 471.5 84.6861 479.479L73.7771 479.383L73.6016 499.497L84.5106 499.592C82.5539 506.106 78.8227 511.947 73.7347 516.461C68.6466 520.975 62.4027 523.984 55.7017 525.15C49.0008 526.317 42.1075 525.595 35.7934 523.066C29.4794 520.537 23.9938 516.301 19.9508 510.831C15.9079 505.361 13.4672 498.874 12.902 492.096C12.3368 485.318 13.6693 478.516 16.7504 472.452C19.8315 466.389 24.5396 461.302 30.3476 457.762C36.1556 454.222 42.8342 452.369 49.6358 452.409L48.9599 451.722ZM78.1789 111.726L55.6791 111.529L55.8487 92.0978L78.3485 92.2941L78.1789 111.726ZM35.7417 71.6368L35.2181 131.636L78.1723 132.011L77.8963 144.112L14.3217 143.046L15.0565 58.8418L78.1243 59.3921L78.1891 71.4958L35.7417 71.6368Z" fill="#BD944E"/>
</g>
<defs>
<clipPath id="clip0_50_8625">
<rect width="478.999" height="428.616" fill="white" transform="translate(-300 316.735) rotate(-44.5)"/>
</clipPath>
</defs>
</svg>
