<svg width="254" height="26" viewBox="0 0 254 26" fill="none" xmlns="http://www.w3.org/2000/svg">
<g id="logo-marbslifestyle 1" clip-path="url(#clip0_301_3147)">
<g id="Laag 2">
<g id="Laag 1">
<path id="Vector" d="M0 20.9031V18.3246H2.53103V3.96635H0V1.38791H9.32177L13.494 13.4304H13.5815L17.5057 1.38791H26.6487V3.96635H24.0703V18.3246H26.6597V20.9031H16.8237V18.3246H19.2635V4.58999H19.0009L13.2934 20.9323H11.324L5.41217 4.58999H5.14594V18.3246H7.58944V20.9031H0Z" fill="#212F57"/>
<path id="Vector_2" d="M32.5605 21.173C31.4645 21.2155 30.3906 20.8562 29.5408 20.1627C29.1528 19.8366 28.8441 19.4264 28.6381 18.9632C28.4321 18.5 28.3342 17.9961 28.3519 17.4895C28.342 17.044 28.4229 16.6012 28.5897 16.188C28.7564 15.7748 29.0056 15.3999 29.322 15.0861C30.2459 14.1549 32.1484 13.5021 35.0296 13.1277C35.5342 13.0697 36.0348 12.9808 36.5285 12.8614C36.6074 12.8394 36.6765 12.7914 36.7248 12.7252C36.7731 12.6591 36.7977 12.5786 36.7947 12.4967V11.2896C36.7947 10.4216 36.5868 9.79793 36.1784 9.42229C35.7699 9.04665 35.128 8.86065 34.2819 8.86065C33.6747 8.85948 33.0738 8.98364 32.5168 9.22535C32.7493 9.40068 32.9354 9.63029 33.0587 9.89413C33.1821 10.158 33.2389 10.448 33.2243 10.7389C33.2218 10.9833 33.1664 11.2243 33.0619 11.4453C32.9574 11.6663 32.8063 11.862 32.6189 12.019C32.2054 12.3839 31.6674 12.5759 31.1163 12.5551C30.816 12.5744 30.5149 12.5316 30.2319 12.4293C29.9489 12.327 29.6901 12.1675 29.4715 11.9606C29.2779 11.7669 29.1259 11.5356 29.0249 11.2809C28.924 11.0263 28.8761 10.7537 28.8843 10.4799C28.8843 9.26425 29.5165 8.33426 30.7808 7.68996C32.2242 6.99803 33.8126 6.66284 35.4125 6.71256C39.1592 6.71256 41.0313 8.32332 41.0289 11.5449V17.8797C41.0029 18.1122 41.0668 18.3457 41.2076 18.5325C41.2845 18.597 41.3734 18.6457 41.4691 18.6757C41.5649 18.7057 41.6656 18.7166 41.7656 18.7076C42.1303 18.7076 42.4403 18.2663 42.6773 17.3728L44.1289 17.8542C43.8553 18.9993 43.4286 19.8418 42.8488 20.3743C42.2061 20.8811 41.4147 21.1628 40.5963 21.176C39.7779 21.1892 38.9778 20.9331 38.3192 20.4472C37.6895 19.8712 37.311 19.0711 37.2652 18.2189H37.1193C36.2951 20.1883 34.7755 21.173 32.5605 21.173ZM34.5591 18.6492C34.8782 18.6546 35.1935 18.58 35.4764 18.4322C35.7592 18.2844 36.0006 18.0682 36.1784 17.8031C36.6138 17.159 36.83 16.3916 36.7947 15.6149V14.2582C36.7145 14.2801 36.5431 14.3093 36.2805 14.3494C36.0179 14.3895 35.7444 14.4369 35.4708 14.4953C34.4497 14.674 33.7385 14.9439 33.3373 15.2976C33.1284 15.4998 32.9662 15.7453 32.8622 16.0169C32.7583 16.2884 32.715 16.5794 32.7356 16.8695C32.7169 17.3373 32.8788 17.7943 33.1878 18.1459C33.3667 18.3236 33.5818 18.4606 33.8185 18.5475C34.0551 18.6343 34.3078 18.669 34.5591 18.6492Z" fill="#212F57"/>
<path id="Vector_3" d="M44.4937 20.9031V18.4414H46.5214V9.48429H44.4937V7.02255H50.5513V10.582C50.8607 9.48423 51.4604 8.49016 52.2873 7.70455C52.9859 7.07062 53.8969 6.72183 54.8402 6.72715C55.2071 6.71221 55.5732 6.77232 55.9161 6.90378C56.259 7.03524 56.5714 7.23529 56.8343 7.49168C57.0972 7.74808 57.305 8.05543 57.445 8.39492C57.585 8.7344 57.6542 9.09889 57.6484 9.46606C57.6704 10.1367 57.4326 10.79 56.9847 11.2896C56.7826 11.5227 56.5319 11.7088 56.2503 11.8348C55.9687 11.9608 55.6629 12.0236 55.3545 12.019C54.7543 12.043 54.1667 11.8428 53.706 11.4573C53.4902 11.2646 53.3202 11.026 53.2085 10.7591C53.0968 10.4922 53.0462 10.2036 53.0605 9.91464C53.0572 9.87946 53.0572 9.84405 53.0605 9.80887C53.0637 9.76517 53.0637 9.72129 53.0605 9.67758C52.5538 9.75851 52.0964 10.0282 51.7804 10.4325C51.3109 10.9876 50.9741 11.6424 50.7957 12.3472V18.4414H53.3486V20.9031H44.4937Z" fill="#212F57"/>
<path id="Vector_4" d="M59.5593 21.111V2.95977H57.5571V0.436035H63.8811V9.77969C64.8536 7.72277 66.3124 6.69553 68.2575 6.69796C68.9074 6.68233 69.5536 6.80054 70.1559 7.04522C70.7582 7.28991 71.3037 7.65584 71.7586 8.1203C73.0132 9.38702 73.6405 11.3248 73.6405 13.9336C73.6405 16.4647 72.984 18.3927 71.6711 19.7178C71.1924 20.2045 70.6186 20.5874 69.9856 20.8428C69.3525 21.0981 68.6736 21.2204 67.9912 21.2021C65.7787 21.2021 64.1716 20.2296 63.1699 18.2845L61.8168 21.1L59.5593 21.111ZM66.558 18.7988C68.2064 18.7988 69.0306 17.1965 69.0306 13.992C69.0306 10.9747 68.2064 9.46604 66.558 9.46604C66.1088 9.46419 65.668 9.58827 65.2858 9.82421C64.9035 10.0601 64.595 10.3985 64.3953 10.8009C63.8403 11.8478 63.5723 13.0231 63.6185 14.2072C63.5639 15.3699 63.8328 16.5251 64.3953 17.5442C64.6075 17.9302 64.9211 18.2511 65.3022 18.4722C65.6833 18.6932 66.1175 18.8061 66.558 18.7988Z" fill="#212F57"/>
<path id="Vector_5" d="M75.5881 21.173V16.0671H77.8529C78.4124 16.9611 79.1364 17.7407 79.9864 18.3648C80.687 18.9008 81.5407 19.1986 82.4226 19.2145C83.6189 19.2145 84.217 18.7392 84.217 17.7885C84.2242 17.5392 84.1627 17.2926 84.0392 17.0758C83.9157 16.8591 83.7349 16.6804 83.5167 16.5595C82.63 16.121 81.6913 15.7963 80.7231 15.593C78.9872 15.1408 77.7302 14.5925 76.9521 13.9482C76.5589 13.6062 76.2495 13.1784 76.0478 12.6978C75.846 12.2172 75.7574 11.6967 75.7887 11.1765C75.7807 10.5789 75.9002 9.98655 76.1392 9.4388C76.3782 8.89106 76.7311 8.40054 77.1746 7.99994C78.1619 7.10632 79.4621 6.63844 80.7924 6.69796C82.4773 6.69796 83.7903 7.27054 84.7312 8.4157L85.2017 6.75631H87.4956V11.4974H85.2308C84.0346 9.62043 82.7217 8.68072 81.2921 8.67829C80.1323 8.67829 79.5561 9.12322 79.5561 10.0131C79.5505 10.2488 79.6111 10.4814 79.731 10.6845C79.8509 10.8875 80.0253 11.0529 80.2344 11.1619C81.1036 11.5738 82.0162 11.887 82.9551 12.0955C84.657 12.5526 85.9226 13.1009 86.7516 13.7403C87.5722 14.3822 87.9843 15.3487 87.9843 16.6324C87.9929 17.2397 87.8729 17.8418 87.6322 18.3994C87.3914 18.9569 87.0354 19.4572 86.5875 19.8673C85.6563 20.7572 84.3872 21.2021 82.78 21.2021C80.8982 21.2021 79.4078 20.5688 78.3088 19.302L77.8383 21.173H75.5881Z" fill="#212F57"/>
<path id="Vector_6" d="M89.7932 1.68332H98.6482V2.8686H95.0887V19.7178H102.266C102.831 19.7178 103.236 19.3531 103.47 18.6237C103.703 17.8943 104.02 16.2349 104.41 13.6273H105.351V20.9031H89.7932V19.7178H93.0281V2.8686H89.7932V1.68332Z" fill="#212F57"/>
<path id="Vector_7" d="M107.529 20.9031V19.7178H110.06V8.95181H107.529V7.76288H111.941V19.7178H114.472V20.9031H107.529ZM110.811 4.58998C110.621 4.59503 110.433 4.56214 110.256 4.49324C110.08 4.42435 109.918 4.32084 109.782 4.18881C109.644 4.05133 109.536 3.88663 109.465 3.70517C109.395 3.52372 109.362 3.32948 109.37 3.13482C109.366 2.94115 109.4 2.74853 109.471 2.5682C109.541 2.38786 109.647 2.22342 109.782 2.08448C109.914 1.94436 110.073 1.83359 110.251 1.75943C110.428 1.68527 110.619 1.64939 110.811 1.65413C110.993 1.65335 111.173 1.68983 111.341 1.76133C111.508 1.83283 111.659 1.93784 111.785 2.06989C111.919 2.20582 112.025 2.36773 112.095 2.54579C112.166 2.72385 112.199 2.91433 112.193 3.10565C112.201 3.3009 112.17 3.49576 112.102 3.67911C112.035 3.86245 111.932 4.03069 111.799 4.17422C111.674 4.30778 111.523 4.41376 111.354 4.48535C111.186 4.55695 111.005 4.59259 110.822 4.58998H110.811Z" fill="#212F57"/>
<path id="Vector_8" d="M116.088 20.9031V19.7178H118.324V8.95182H115.61V7.76289H118.316V6.72714C118.316 4.49273 118.803 2.87103 119.775 1.86202C120.255 1.36239 120.834 0.969395 121.476 0.708621C122.117 0.447846 122.807 0.325145 123.499 0.34851C124.398 0.323758 125.285 0.560687 126.052 1.0305C126.377 1.21156 126.647 1.47601 126.836 1.79656C127.024 2.11711 127.124 2.48215 127.124 2.85401C127.136 3.25609 126.994 3.64753 126.726 3.94811C126.61 4.0887 126.464 4.20159 126.299 4.27857C126.134 4.35554 125.953 4.39465 125.771 4.39305C125.588 4.40489 125.405 4.37858 125.233 4.3158C125.061 4.25301 124.904 4.15512 124.772 4.02835C124.652 3.90411 124.558 3.75726 124.495 3.59634C124.433 3.43543 124.403 3.26367 124.407 3.09107C124.403 2.81141 124.485 2.53734 124.644 2.30696C124.754 2.13107 124.909 1.98759 125.093 1.8912C124.757 1.53379 124.188 1.35509 123.386 1.35509C122.292 1.35509 121.482 1.75626 120.975 2.5586C120.468 3.36094 120.209 4.71763 120.209 6.63596V7.76289H124.152V8.95182H120.206V19.7178H123.324V20.9031H116.088Z" fill="#212F57"/>
<path id="Vector_9" d="M136.971 14.4078H127.675C127.697 16.1486 128.099 17.4931 128.882 18.4414C129.251 18.9019 129.723 19.2703 130.259 19.5178C130.795 19.7652 131.381 19.8849 131.971 19.8673C133.831 19.8673 135.105 18.9677 135.793 17.1686H136.887C136.564 18.3403 135.883 19.382 134.94 20.1482C134.003 20.846 132.858 21.2071 131.69 21.173C130.869 21.2052 130.051 21.0555 129.294 20.7345C128.538 20.4136 127.861 19.9294 127.314 19.3166C126.205 18.0791 125.651 16.4622 125.651 14.4661C125.588 12.6421 126.219 10.8622 127.416 9.48429C127.935 8.85833 128.587 8.35537 129.324 8.01167C130.062 7.66797 130.866 7.49208 131.679 7.49667C132.464 7.45802 133.245 7.62516 133.944 7.9815C134.644 8.33784 135.239 8.87099 135.669 9.52805C136.604 10.9777 137.06 12.6849 136.971 14.4078ZM131.617 8.57254C131.115 8.56769 130.618 8.67714 130.165 8.8926C129.711 9.10806 129.312 9.42388 128.999 9.81617C128.236 10.7968 127.795 11.989 127.737 13.2298H134.969C134.872 11.7272 134.534 10.5747 133.955 9.7724C133.698 9.39138 133.349 9.08113 132.94 8.87019C132.532 8.65925 132.077 8.55439 131.617 8.56524V8.57254Z" fill="#212F57"/>
<path id="Vector_10" d="M139.469 21.173V16.1875H140.439C141.186 18.8182 142.686 20.1336 144.94 20.1336C145.675 20.1661 146.401 19.9517 147 19.5245C147.248 19.3308 147.449 19.0831 147.587 18.8003C147.724 18.5175 147.796 18.2071 147.796 17.8925C147.796 17.5779 147.724 17.2674 147.587 16.9846C147.449 16.7019 147.248 16.4542 147 16.2604C146.472 15.8775 145.542 15.4946 144.178 15.1189C142.547 14.6667 141.399 14.1452 140.72 13.5616C140.387 13.2752 140.123 12.9172 139.947 12.5143C139.771 12.1114 139.689 11.674 139.706 11.2349C139.706 10.7346 139.816 10.2403 140.027 9.78674C140.238 9.33315 140.545 8.93118 140.928 8.609C141.773 7.86246 142.873 7.47054 143.999 7.5149C145.667 7.5149 146.853 8.0583 147.558 9.14511L147.923 7.5149H148.864V12.019H147.952C147.608 11.0317 147.062 10.1273 146.348 9.36393C145.704 8.79816 144.865 8.50629 144.01 8.55065C143.354 8.53241 142.712 8.73539 142.186 9.12688C141.951 9.2988 141.76 9.52462 141.63 9.78542C141.5 10.0462 141.434 10.3344 141.439 10.6258C141.433 10.9327 141.503 11.2362 141.642 11.5101C141.78 11.7839 141.983 12.02 142.234 12.1977C143.059 12.7296 143.969 13.1157 144.925 13.3392C146.627 13.8254 147.804 14.3445 148.455 14.8965C148.787 15.1954 149.047 15.5657 149.215 15.9794C149.383 16.3932 149.455 16.8396 149.426 17.2853C149.428 17.8007 149.32 18.3107 149.109 18.7812C148.899 19.2516 148.59 19.6717 148.204 20.0132C147.346 20.8031 146.21 21.2202 145.046 21.173C143.2 21.173 141.768 20.5299 140.749 19.2437L140.41 21.173H139.469Z" fill="#212F57"/>
<path id="Vector_11" d="M153.616 4.08671L155.502 3.78766V7.76291H159.765V8.95183H155.502V17.6718C155.502 19.0942 156.067 19.8053 157.205 19.8053C157.457 19.8136 157.709 19.7677 157.942 19.6709C158.175 19.574 158.385 19.4284 158.558 19.2437C158.996 18.709 159.317 18.0876 159.499 17.4202L160.352 17.7156C159.725 20.0278 158.538 21.1851 156.793 21.1876C156.353 21.2174 155.913 21.1488 155.503 20.9866C155.094 20.8244 154.725 20.5729 154.426 20.2503C153.886 19.6303 153.616 18.7331 153.616 17.5661V8.95183H150.91V7.76291H153.616V4.08671Z" fill="#212F57"/>
<path id="Vector_12" d="M162.558 22.1504C162.734 22.1426 162.91 22.171 163.074 22.2337C163.238 22.2965 163.388 22.3922 163.514 22.5151C163.635 22.6378 163.73 22.7838 163.792 22.9443C163.855 23.1049 163.884 23.2765 163.879 23.4487C163.888 23.8447 163.759 24.2315 163.514 24.5428C163.843 24.5575 164.171 24.5031 164.478 24.3831C164.784 24.2631 165.062 24.0802 165.294 23.8462C165.892 23.321 166.475 22.3485 167.044 20.9286L162.34 8.94816H160.574V7.76288H166.749V8.95181H164.48L168.098 18.6492L171.774 8.95181H169.659V7.76288H174.597V8.95181H173.087L168.645 20.2211C167.86 22.2196 167.047 23.6237 166.205 24.4334C165.843 24.8108 165.41 25.1128 164.93 25.3219C164.451 25.531 163.935 25.643 163.412 25.6515C162.792 25.6857 162.181 25.4954 161.69 25.1154C161.512 24.9665 161.364 24.7835 161.257 24.577C161.15 24.3705 161.084 24.1447 161.065 23.9128C161.046 23.6809 161.074 23.4475 161.146 23.2263C161.218 23.005 161.334 22.8005 161.486 22.6245C161.619 22.4711 161.784 22.349 161.969 22.267C162.155 22.1851 162.356 22.1452 162.558 22.1504Z" fill="#212F57"/>
<path id="Vector_13" d="M175.148 20.9031V19.7178H177.675V1.68333H175.148V0.527222H179.557V19.7178H182.088V20.9031H175.148Z" fill="#212F57"/>
<path id="Vector_14" d="M195.177 14.4077H185.881C185.903 16.1486 186.305 17.4931 187.088 18.4413C187.458 18.9018 187.929 19.2703 188.465 19.5178C189.001 19.7652 189.587 19.8849 190.177 19.8673C192.037 19.8673 193.311 18.9677 193.999 17.1685H195.093C194.77 18.3422 194.087 19.3846 193.139 20.1481C192.202 20.8455 191.057 21.2065 189.889 21.173C189.068 21.2044 188.25 21.0543 187.494 20.7335C186.737 20.4126 186.061 19.9288 185.513 19.3166C184.406 18.0791 183.853 16.4622 183.853 14.4661C183.795 12.6401 184.431 10.86 185.633 9.48427C186.152 8.85831 186.804 8.35535 187.541 8.01165C188.279 7.66795 189.083 7.49206 189.896 7.49665C190.68 7.45865 191.46 7.6261 192.16 7.98241C192.859 8.33872 193.453 8.87152 193.883 9.52803C194.814 10.9792 195.266 12.6858 195.177 14.4077ZM189.823 8.57252C189.321 8.56767 188.825 8.67712 188.371 8.89258C187.917 9.10804 187.518 9.42386 187.205 9.81615C186.443 10.7971 186.001 11.9889 185.939 13.2298H193.175C193.078 11.7272 192.74 10.5747 192.161 9.77238C191.904 9.39136 191.555 9.08111 191.147 8.87017C190.738 8.65923 190.283 8.55437 189.823 8.56522V8.57252Z" fill="#212F57"/>
<path id="Vector_15" d="M200.338 20.8885C200.06 21.164 199.684 21.3186 199.293 21.3186C198.902 21.3186 198.526 21.164 198.248 20.8885C197.974 20.6067 197.821 20.2293 197.821 19.8363C197.821 19.4434 197.974 19.066 198.248 18.7842C198.526 18.5087 198.902 18.3541 199.293 18.3541C199.684 18.3541 200.06 18.5087 200.338 18.7842C200.612 19.066 200.765 19.4434 200.765 19.8363C200.765 20.2293 200.612 20.6067 200.338 20.8885Z" fill="#212F57"/>
<path id="Vector_16" d="M208.883 21.173C208.095 21.1889 207.312 21.0323 206.591 20.7141C205.87 20.396 205.227 19.924 204.707 19.3312C203.565 18.0437 202.964 16.3648 203.029 14.6448C203.029 12.5295 203.613 10.8094 204.78 9.48428C205.947 8.1592 207.51 7.49666 209.47 7.49666C210.73 7.46452 211.958 7.8909 212.927 8.69652C213.876 9.49887 214.353 10.345 214.353 11.2494C214.366 11.7075 214.215 12.155 213.927 12.5113C213.796 12.6756 213.629 12.8077 213.44 12.8975C213.25 12.9873 213.042 13.0323 212.832 13.0292C212.638 13.037 212.444 13.0025 212.264 12.9283C212.084 12.854 211.922 12.7416 211.789 12.5988C211.614 12.4049 211.491 12.1692 211.432 11.9142C211.373 11.6592 211.381 11.3935 211.454 11.1422C211.527 10.891 211.663 10.6627 211.85 10.4791C212.036 10.2954 212.266 10.1626 212.519 10.0933C212.173 9.60158 211.708 9.20507 211.168 8.94051C210.628 8.67595 210.03 8.55189 209.43 8.57982C208.805 8.55967 208.184 8.69708 207.626 8.9794C207.068 9.26172 206.589 9.67989 206.235 10.1954C205.452 11.275 205.059 12.6839 205.057 14.4223C205.057 16.1024 205.44 17.4396 206.206 18.4341C206.563 18.9119 207.031 19.2964 207.568 19.5548C208.106 19.8132 208.698 19.938 209.295 19.9184C211.155 19.9184 212.518 18.8498 213.383 16.7127H214.499C214.207 18.0205 213.488 19.1942 212.457 20.0497C211.429 20.8221 210.168 21.2186 208.883 21.173Z" fill="#212F57"/>
<path id="Vector_17" d="M222.833 21.173C222.014 21.1952 221.2 21.0424 220.445 20.7248C219.691 20.4072 219.013 19.9321 218.456 19.3312C217.296 18.1156 216.718 16.4938 216.72 14.4661C216.723 12.4384 217.316 10.7717 218.5 9.46605C219.036 8.84272 219.701 8.34363 220.449 8.00351C221.197 7.6634 222.011 7.49044 222.833 7.49666C223.652 7.47697 224.466 7.63202 225.22 7.95147C225.975 8.27092 226.653 8.74745 227.209 9.34934C228.376 10.5869 228.96 12.2135 228.96 14.2291C228.96 16.2446 228.361 17.9113 227.165 19.2291C226.626 19.8466 225.96 20.3401 225.212 20.6757C224.464 21.0112 223.652 21.1809 222.833 21.173ZM222.924 20.1044C223.48 20.0983 224.027 19.959 224.519 19.6983C225.011 19.4375 225.433 19.0628 225.75 18.6055C226.523 17.6062 226.91 16.1778 226.91 14.3202C226.91 12.4627 226.499 11.0391 225.677 10.0496C225.334 9.59244 224.89 9.22069 224.379 8.96324C223.869 8.7058 223.306 8.5696 222.734 8.56524C222.179 8.5719 221.633 8.71145 221.142 8.97222C220.652 9.233 220.231 9.60741 219.915 10.0642C219.139 11.0634 218.752 12.5016 218.752 14.3786C218.752 16.2556 219.164 17.6743 219.988 18.6346C220.332 19.0859 220.774 19.4527 221.281 19.7074C221.787 19.9621 222.346 20.0979 222.913 20.1044H222.924Z" fill="#212F57"/>
<path id="Vector_18" d="M243.5 11.1145C244.872 8.70502 246.469 7.49908 248.292 7.49665C250.609 7.49665 251.767 8.91047 251.764 11.7381V19.7178H254V20.9031H247.971V19.7178H249.883V12.7885C249.883 11.2057 249.639 10.1675 249.153 9.67391C248.926 9.47187 248.66 9.31769 248.372 9.22056C248.084 9.12344 247.779 9.08537 247.476 9.10863C246.459 9.10863 245.547 9.5949 244.74 10.5674C243.933 11.54 243.532 12.4736 243.537 13.3683V19.7178H245.444V20.9031H239.733V19.7178H241.648V12.7885C241.648 11.2057 241.4 10.1663 240.918 9.67391C240.692 9.47103 240.427 9.31577 240.139 9.2174C239.852 9.11903 239.547 9.07956 239.244 9.10133C238.225 9.10133 237.314 9.5876 236.509 10.5601C235.704 11.5327 235.303 12.4663 235.305 13.361V19.7178H237.216V20.9031H231.177V19.7178H233.409V8.95181H231.173V7.76288H235.232V11.1765C236.623 8.72083 238.23 7.49422 240.054 7.49665C242.176 7.49665 243.325 8.70259 243.5 11.1145Z" fill="#212F57"/>
</g>
</g>
</g>
<defs>
<clipPath id="clip0_301_3147">
<rect width="254" height="25.303" fill="white" transform="translate(0 0.348511)"/>
</clipPath>
</defs>
</svg>
