<svg width="358" height="36" viewBox="0 0 358 36" fill="none" xmlns="http://www.w3.org/2000/svg">
<g clip-path="url(#clip0_44_5051)">
<path d="M0 29.0906V25.4564H3.56735V5.21914H0V1.58496H13.1386L19.019 18.5582H19.1424L24.6733 1.58496H37.56V5.21914H33.9259V25.4564H37.5755V29.0906H23.7121V25.4564H27.151V6.09813H26.7809L18.7363 29.1317H15.9606L7.62818 6.09813H7.25294V25.4564H10.6969V29.0906H0Z" fill="#FCFCFC"/>
<path d="M45.8927 29.471C44.3479 29.5309 42.8344 29.0246 41.6366 28.0472C41.0897 27.5874 40.6546 27.0092 40.3643 26.3565C40.074 25.7037 39.936 24.9933 39.9609 24.2793C39.9469 23.6515 40.0609 23.0273 40.296 22.4449C40.5311 21.8626 40.8823 21.3341 41.3282 20.8919C42.6304 19.5794 45.3119 18.6593 49.3727 18.1316C50.084 18.0499 50.7895 17.9246 51.4854 17.7563C51.5966 17.7252 51.694 17.6576 51.7621 17.5644C51.8302 17.4711 51.8649 17.3577 51.8606 17.2423V15.5409C51.8606 14.3175 51.5676 13.4385 50.9919 12.909C50.4162 12.3796 49.5115 12.1174 48.319 12.1174C47.4631 12.1158 46.6162 12.2908 45.8311 12.6315C46.1588 12.8786 46.4211 13.2022 46.5949 13.5741C46.7688 13.9459 46.8489 14.3547 46.8283 14.7647C46.8248 15.1092 46.7467 15.4489 46.5994 15.7603C46.4521 16.0718 46.2391 16.3477 45.975 16.5689C45.3922 17.0833 44.6339 17.3539 43.8572 17.3245C43.4339 17.3518 43.0096 17.2914 42.6107 17.1473C42.2118 17.0031 41.847 16.7782 41.5389 16.4867C41.266 16.2136 41.0518 15.8876 40.9095 15.5287C40.7672 15.1698 40.6998 14.7856 40.7113 14.3997C40.7113 12.6863 41.6023 11.3755 43.3843 10.4674C45.4187 9.49217 47.6575 9.01973 49.9124 9.08981C55.1932 9.08981 57.8319 11.3601 57.8285 15.9007V24.8293C57.7918 25.157 57.8819 25.4862 58.0803 25.7495C58.1887 25.8403 58.314 25.9089 58.449 25.9512C58.5839 25.9936 58.7259 26.0089 58.8668 25.9962C59.3808 25.9962 59.8178 25.3742 60.1519 24.1148L62.1977 24.7934C61.8122 26.4074 61.2108 27.5948 60.3935 28.3453C59.4876 29.0597 58.3722 29.4567 57.2187 29.4753C56.0652 29.4938 54.9376 29.1329 54.0092 28.4481C53.1217 27.6363 52.5883 26.5085 52.5237 25.3074H52.3181C51.1564 28.0831 49.0146 29.471 45.8927 29.471ZM48.7096 25.9139C49.1594 25.9215 49.6038 25.8164 50.0025 25.6081C50.4012 25.3998 50.7413 25.0949 50.9919 24.7214C51.6057 23.8135 51.9103 22.732 51.8606 21.6372V19.725C51.7475 19.7559 51.5059 19.797 51.1358 19.8536C50.7657 19.9101 50.3802 19.9769 49.9947 20.0592C48.5554 20.311 47.5531 20.6914 46.9876 21.19C46.6931 21.475 46.4645 21.821 46.318 22.2037C46.1714 22.5865 46.1105 22.9967 46.1395 23.4055C46.1131 24.0648 46.3413 24.7089 46.7769 25.2046C47.0289 25.455 47.3321 25.6481 47.6657 25.7705C47.9993 25.8929 48.3554 25.9419 48.7096 25.9139Z" fill="#FCFCFC"/>
<path d="M62.7109 29.0908V25.6211H65.5689V12.9966H62.7109V9.52693H71.2489V14.5438C71.685 12.9965 72.5303 11.5954 73.6957 10.4882C74.6803 9.59467 75.9643 9.10308 77.2939 9.11057C77.8111 9.08952 78.3271 9.17423 78.8103 9.35952C79.2936 9.54481 79.734 9.82677 80.1045 10.1881C80.475 10.5495 80.7679 10.9827 80.9652 11.4612C81.1625 11.9397 81.2601 12.4534 81.2519 12.9709C81.2829 13.9162 80.9477 14.8369 80.3164 15.5411C80.0316 15.8696 79.6783 16.1319 79.2814 16.3095C78.8844 16.4871 78.4535 16.5757 78.0187 16.5691C77.1728 16.603 76.3445 16.3208 75.6953 15.7775C75.3911 15.5059 75.1515 15.1696 74.9941 14.7934C74.8367 14.4172 74.7654 14.0105 74.7855 13.6032C74.7808 13.5536 74.7808 13.5037 74.7855 13.4541C74.79 13.3925 74.79 13.3307 74.7855 13.2691C74.0712 13.3831 73.4266 13.7633 72.9812 14.3331C72.3194 15.1154 71.8448 16.0384 71.5933 17.0317V25.6211H75.1915V29.0908H62.7109Z" fill="#FCFCFC"/>
<path d="M83.946 29.3834V3.80024H81.124V0.243164H90.0373V13.4126C91.408 10.5134 93.4641 9.0656 96.2056 9.06903C97.1216 9.047 98.0324 9.2136 98.8813 9.55847C99.7302 9.90334 100.499 10.4191 101.14 11.0737C102.909 12.8591 103.793 15.5903 103.793 19.2673C103.793 22.8347 102.867 25.5522 101.017 27.4198C100.342 28.1058 99.5335 28.6455 98.6413 29.0054C97.749 29.3653 96.7922 29.5377 95.8304 29.5119C92.7119 29.5119 90.4468 28.1412 89.0349 25.3997L87.1279 29.368L83.946 29.3834ZM93.8102 26.1245C96.1336 26.1245 97.2953 23.8662 97.2953 19.3496C97.2953 15.0969 96.1336 12.9705 93.8102 12.9705C93.1771 12.9679 92.5559 13.1428 92.0171 13.4753C91.4783 13.8078 91.0435 14.2847 90.762 14.8518C89.9798 16.3275 89.6021 17.9839 89.6672 19.6529C89.5902 21.2917 89.9692 22.9198 90.762 24.3562C91.0612 24.9004 91.5032 25.3526 92.0403 25.6642C92.5774 25.9757 93.1894 26.1349 93.8102 26.1245Z" fill="#FCFCFC"/>
<path d="M106.537 29.4714V22.275H109.729C110.518 23.5349 111.538 24.6338 112.736 25.5134C113.724 26.2689 114.927 26.6886 116.17 26.7111C117.856 26.7111 118.699 26.0411 118.699 24.7012C118.709 24.3497 118.622 24.0022 118.448 23.6967C118.274 23.3912 118.02 23.1394 117.712 22.9689C116.462 22.3509 115.139 21.8932 113.775 21.6068C111.328 20.9694 109.556 20.1966 108.46 19.2885C107.905 18.8064 107.469 18.2034 107.185 17.5261C106.901 16.8487 106.776 16.1152 106.82 15.3819C106.809 14.5397 106.977 13.7047 107.314 12.9327C107.651 12.1607 108.148 11.4693 108.773 10.9047C110.165 9.6452 111.997 8.98574 113.872 9.06963C116.247 9.06963 118.098 9.87665 119.424 11.4907L120.087 9.15187H123.32V15.8342H120.128C118.442 13.1887 116.591 11.8642 114.577 11.8608C112.942 11.8608 112.13 12.4879 112.13 13.7421C112.122 14.0744 112.207 14.4022 112.376 14.6884C112.545 14.9746 112.791 15.2077 113.086 15.3613C114.311 15.9419 115.597 16.3833 116.92 16.6772C119.319 17.3215 121.103 18.0942 122.272 18.9955C123.428 19.9002 124.009 21.2624 124.009 23.0718C124.021 23.9276 123.852 24.7764 123.513 25.5622C123.173 26.348 122.671 27.0531 122.04 27.6312C120.728 28.8854 118.939 29.5125 116.674 29.5125C114.021 29.5125 111.921 28.6198 110.372 26.8344L109.709 29.4714H106.537Z" fill="#FCFCFC"/>
<path d="M126.559 2.00195H139.039V3.67254H134.022V27.4206H144.138C144.935 27.4206 145.506 26.9066 145.835 25.8786C146.164 24.8505 146.611 22.5117 147.161 18.8364H148.487V29.0912H126.559V27.4206H131.118V3.67254H126.559V2.00195Z" fill="#FCFCFC"/>
<path d="M151.556 29.0909V27.4204H155.123V12.2462H151.556V10.5705H157.775V27.4204H161.343V29.0909H151.556ZM156.182 6.09847C155.915 6.10559 155.649 6.05923 155.4 5.96213C155.151 5.86502 154.924 5.71914 154.732 5.53304C154.538 5.33928 154.386 5.10714 154.286 4.85138C154.186 4.59563 154.14 4.32187 154.152 4.0475C154.145 3.77454 154.193 3.50305 154.293 3.24887C154.393 2.9947 154.542 2.76293 154.732 2.5671C154.918 2.36961 155.143 2.21349 155.392 2.10896C155.642 2.00443 155.911 1.95386 156.182 1.96055C156.439 1.95945 156.693 2.01087 156.929 2.11164C157.165 2.21242 157.378 2.36042 157.554 2.54654C157.744 2.73812 157.893 2.96633 157.992 3.21729C158.091 3.46825 158.138 3.73673 158.13 4.00638C158.141 4.28158 158.098 4.55623 158.002 4.81464C157.907 5.07306 157.762 5.31019 157.575 5.51248C157.399 5.70073 157.185 5.85009 156.948 5.951C156.711 6.05192 156.455 6.10215 156.197 6.09847H156.182Z" fill="#FCFCFC"/>
<path d="M163.621 29.0908V27.4202H166.772V12.2461H162.947V10.5704H166.761V9.11052C166.761 5.96124 167.447 3.67553 168.817 2.25338C169.493 1.54919 170.31 0.995273 171.214 0.627725C172.119 0.260176 173.09 0.0872354 174.066 0.120168C175.333 0.0852807 176.583 0.41922 177.664 1.0814C178.122 1.3366 178.503 1.70933 178.769 2.16112C179.034 2.61292 179.175 3.12743 179.175 3.65154C179.192 4.21825 178.992 4.76997 178.615 5.19362C178.451 5.39177 178.245 5.55089 178.012 5.65938C177.779 5.76787 177.525 5.823 177.268 5.82074C177.011 5.83743 176.752 5.80035 176.51 5.71186C176.267 5.62336 176.046 5.48539 175.86 5.30671C175.691 5.1316 175.558 4.92462 175.47 4.69782C175.382 4.47102 175.339 4.22894 175.346 3.98566C175.339 3.5915 175.456 3.20521 175.68 2.8805C175.835 2.63259 176.053 2.43036 176.312 2.29451C175.839 1.79076 175.037 1.53888 173.906 1.53888C172.364 1.53888 171.223 2.10432 170.509 3.23518C169.794 4.36604 169.429 6.27822 169.429 8.98201V10.5704H174.986V12.2461H169.424V27.4202H173.819V29.0908H163.621Z" fill="#FCFCFC"/>
<path d="M193.053 19.936H179.951C179.981 22.3896 180.549 24.2847 181.652 25.6212C182.173 26.2702 182.837 26.7896 183.592 27.1384C184.348 27.4871 185.174 27.6558 186.006 27.631C188.627 27.631 190.423 26.3631 191.393 23.8272H192.935C192.48 25.4788 191.52 26.947 190.19 28.0268C188.87 29.0104 187.256 29.5193 185.61 29.4712C184.453 29.5166 183.299 29.3056 182.233 28.8533C181.167 28.401 180.214 27.7185 179.442 26.8548C177.879 25.1106 177.098 22.8317 177.098 20.0183C177.01 17.4474 177.899 14.9387 179.586 12.9966C180.318 12.1144 181.236 11.4055 182.276 10.9211C183.315 10.4366 184.448 10.1887 185.595 10.1952C186.7 10.1407 187.801 10.3763 188.787 10.8785C189.774 11.3808 190.612 12.1322 191.218 13.0583C192.536 15.1015 193.178 17.5077 193.053 19.936ZM185.507 11.7116C184.799 11.7047 184.099 11.859 183.46 12.1627C182.82 12.4664 182.259 12.9115 181.817 13.4644C180.742 14.8465 180.121 16.527 180.038 18.2757H190.231C190.094 16.1579 189.618 14.5336 188.802 13.4027C188.44 12.8657 187.948 12.4284 187.372 12.1311C186.796 11.8338 186.155 11.686 185.507 11.7013V11.7116Z" fill="#FCFCFC"/>
<path d="M196.574 29.471V22.4442H197.942C198.994 26.152 201.108 28.006 204.285 28.006C205.321 28.0518 206.344 27.7496 207.189 27.1475C207.538 26.8745 207.821 26.5254 208.015 26.1268C208.209 25.7283 208.31 25.2907 208.31 24.8473C208.31 24.4039 208.209 23.9663 208.015 23.5677C207.821 23.1691 207.538 22.8201 207.189 22.547C206.444 22.0073 205.133 21.4675 203.21 20.9381C200.913 20.3007 199.293 19.5656 198.337 18.7432C197.868 18.3395 197.495 17.8348 197.248 17.267C197 16.6991 196.884 16.0827 196.908 15.4637C196.908 14.7586 197.062 14.062 197.36 13.4226C197.657 12.7833 198.091 12.2168 198.63 11.7627C199.821 10.7105 201.371 10.1581 202.958 10.2206C205.309 10.2206 206.982 10.9865 207.975 12.5183L208.489 10.2206H209.816V16.5688H208.531C208.046 15.1773 207.276 13.9026 206.269 12.8267C205.362 12.0293 204.18 11.6179 202.974 11.6804C202.05 11.6547 201.145 11.9408 200.404 12.4926C200.072 12.7349 199.803 13.0532 199.62 13.4208C199.437 13.7884 199.344 14.1945 199.35 14.6053C199.343 15.0378 199.441 15.4656 199.636 15.8516C199.831 16.2376 200.118 16.5703 200.471 16.8207C201.634 17.5704 202.917 18.1146 204.264 18.4296C206.663 19.115 208.321 19.8466 209.24 20.6245C209.707 21.0459 210.073 21.5678 210.31 22.1509C210.547 22.7341 210.649 23.3634 210.607 23.9914C210.61 24.7179 210.458 25.4368 210.161 26.0998C209.864 26.7629 209.429 27.3549 208.885 27.8363C207.677 28.9496 206.076 29.5376 204.434 29.471C201.833 29.471 199.814 28.5646 198.378 26.7517L197.9 29.471H196.574Z" fill="#FCFCFC"/>
<path d="M216.513 5.38928L219.171 4.96777V10.5707H225.18V12.2464H219.171V24.5368C219.171 26.5415 219.968 27.5439 221.571 27.5439C221.927 27.5555 222.282 27.4909 222.61 27.3543C222.939 27.2178 223.235 27.0125 223.478 26.7523C224.097 25.9986 224.549 25.1228 224.805 24.1821L226.007 24.5985C225.123 27.8574 223.451 29.4886 220.99 29.4921C220.371 29.5341 219.75 29.4374 219.173 29.2088C218.596 28.9803 218.077 28.6257 217.654 28.171C216.894 27.2972 216.513 26.0326 216.513 24.3878V12.2464H212.699V10.5707H216.513V5.38928Z" fill="#FCFCFC"/>
<path d="M229.118 30.8487C229.365 30.8378 229.613 30.8778 229.844 30.9663C230.076 31.0547 230.287 31.1896 230.464 31.3627C230.635 31.5357 230.768 31.7416 230.857 31.9678C230.945 32.194 230.987 32.4359 230.978 32.6787C230.991 33.2368 230.809 33.7819 230.464 34.2207C230.928 34.2414 231.391 34.1647 231.823 33.9956C232.255 33.8265 232.646 33.5688 232.973 33.2389C233.816 32.4987 234.638 31.128 235.44 29.1267L228.809 12.2409H226.321V10.5703H235.024V12.246H231.827L236.926 25.9141L242.107 12.246H239.126V10.5703H246.086V12.246H243.958L237.697 28.1295C236.59 30.9464 235.444 32.9254 234.258 34.0665C233.747 34.5985 233.137 35.0242 232.461 35.3188C231.785 35.6135 231.058 35.7714 230.32 35.7834C229.447 35.8317 228.586 35.5634 227.894 35.0278C227.642 34.818 227.434 34.56 227.283 34.269C227.132 33.978 227.04 33.6597 227.013 33.3328C226.986 33.0059 227.025 32.6769 227.127 32.3652C227.229 32.0534 227.392 31.765 227.606 31.517C227.793 31.3008 228.026 31.1287 228.287 31.0132C228.548 30.8976 228.832 30.8415 229.118 30.8487Z" fill="#FCFCFC"/>
<path d="M246.862 29.0908V27.4202H250.425V2.00154H246.862V0.37207H253.077V27.4202H256.644V29.0908H246.862Z" fill="#FCFCFC"/>
<path d="M275.093 19.9358H261.99C262.021 22.3894 262.588 24.2845 263.692 25.6209C264.212 26.27 264.877 26.7894 265.632 27.1381C266.388 27.4869 267.214 27.6555 268.045 27.6308C270.667 27.6308 272.463 26.3628 273.432 23.827H274.974C274.519 25.4812 273.555 26.9504 272.219 28.0266C270.899 29.0094 269.285 29.5183 267.639 29.471C266.482 29.5153 265.329 29.3038 264.263 28.8516C263.197 28.3993 262.243 27.7175 261.471 26.8546C259.912 25.1103 259.132 22.8315 259.132 20.018C259.05 17.4444 259.946 14.9354 261.641 12.9964C262.373 12.1141 263.291 11.4053 264.33 10.9208C265.37 10.4364 266.503 10.1885 267.65 10.1949C268.754 10.1414 269.854 10.3774 270.839 10.8796C271.825 11.3818 272.662 12.1328 273.268 13.0581C274.58 15.1035 275.218 17.5088 275.093 19.9358ZM267.547 11.7113C266.839 11.7045 266.139 11.8588 265.499 12.1624C264.86 12.4661 264.298 12.9113 263.856 13.4642C262.782 14.8468 262.159 16.5266 262.072 18.2755H272.271C272.134 16.1577 271.657 14.5333 270.842 13.4025C270.479 12.8654 269.987 12.4282 269.412 12.1309C268.836 11.8336 268.195 11.6858 267.547 11.701V11.7113Z" fill="#FCFCFC"/>
<path d="M282.366 29.0701C281.974 29.4584 281.444 29.6763 280.893 29.6763C280.341 29.6763 279.812 29.4584 279.42 29.0701C279.034 28.6729 278.818 28.141 278.818 27.5872C278.818 27.0334 279.034 26.5014 279.42 26.1042C279.812 25.7159 280.341 25.498 280.893 25.498C281.444 25.498 281.974 25.7159 282.366 26.1042C282.751 26.5014 282.967 27.0334 282.967 27.5872C282.967 28.141 282.751 28.6729 282.366 29.0701Z" fill="#FCFCFC"/>
<path d="M294.409 29.4708C293.298 29.4932 292.196 29.2725 291.179 28.8241C290.163 28.3757 289.256 27.7105 288.524 26.875C286.914 25.0602 286.067 22.6939 286.159 20.2697C286.159 17.2884 286.982 14.8639 288.627 12.9962C290.271 11.1286 292.475 10.1948 295.237 10.1948C297.012 10.1495 298.744 10.7504 300.11 11.8859C301.446 13.0168 302.12 14.2093 302.12 15.4841C302.138 16.1297 301.924 16.7605 301.518 17.2627C301.334 17.4942 301.1 17.6804 300.832 17.807C300.565 17.9335 300.272 17.997 299.976 17.9926C299.702 18.0036 299.429 17.955 299.175 17.8503C298.921 17.7456 298.693 17.5872 298.506 17.386C298.259 17.1127 298.085 16.7805 298.002 16.4211C297.919 16.0617 297.93 15.6871 298.033 15.333C298.136 14.9789 298.328 14.6571 298.591 14.3983C298.854 14.1395 299.179 13.9523 299.534 13.8546C299.047 13.1615 298.392 12.6027 297.631 12.2298C296.87 11.8569 296.027 11.6821 295.18 11.7214C294.299 11.693 293.425 11.8867 292.638 12.2846C291.851 12.6825 291.177 13.2719 290.677 13.9986C289.574 15.5201 289.021 17.506 289.017 19.9562C289.017 22.3241 289.557 24.2089 290.636 25.6105C291.14 26.284 291.799 26.8259 292.557 27.1901C293.315 27.5544 294.15 27.7302 294.99 27.7026C297.612 27.7026 299.533 26.1965 300.752 23.1843H302.325C301.913 25.0276 300.901 26.6819 299.447 27.8876C297.998 28.9763 296.22 29.5352 294.409 29.4708Z" fill="#FCFCFC"/>
<path d="M314.071 29.4708C312.917 29.5021 311.77 29.2868 310.707 28.8391C309.643 28.3915 308.687 27.7218 307.903 26.8749C306.268 25.1615 305.453 22.8758 305.456 20.0178C305.459 17.1598 306.296 14.8107 307.965 12.9705C308.72 12.0919 309.657 11.3885 310.712 10.9091C311.766 10.4297 312.913 10.186 314.071 10.1947C315.226 10.167 316.373 10.3855 317.437 10.8358C318.5 11.286 319.456 11.9577 320.24 12.806C321.884 14.5503 322.707 16.8428 322.707 19.6837C322.707 22.5246 321.864 24.8737 320.178 26.731C319.418 27.6014 318.479 28.297 317.425 28.7699C316.371 29.2428 315.226 29.4819 314.071 29.4708ZM314.2 27.9647C314.984 27.9561 315.755 27.7598 316.448 27.3923C317.141 27.0247 317.736 26.4966 318.183 25.852C319.273 24.4436 319.818 22.4303 319.818 19.8122C319.818 17.1941 319.239 15.1877 318.081 13.7929C317.597 13.1486 316.971 12.6247 316.251 12.2618C315.532 11.8989 314.738 11.707 313.932 11.7008C313.15 11.7102 312.38 11.9069 311.689 12.2745C310.998 12.642 310.405 13.1697 309.959 13.8135C308.866 15.2219 308.319 17.2489 308.319 19.8944C308.319 22.54 308.9 24.5395 310.062 25.8931C310.546 26.5291 311.169 27.0462 311.884 27.4052C312.598 27.7641 313.385 27.9555 314.184 27.9647H314.2Z" fill="#FCFCFC"/>
<path d="M343.201 15.2945C345.134 11.8985 347.385 10.1987 349.956 10.1953C353.221 10.1953 354.853 12.188 354.849 16.1735V27.4204H358V29.091H349.503V27.4204H352.197V17.6539C352.197 15.423 351.854 13.9597 351.169 13.2641C350.848 12.9793 350.474 12.762 350.068 12.6251C349.661 12.4882 349.232 12.4345 348.804 12.4673C347.372 12.4673 346.087 13.1527 344.949 14.5234C343.811 15.8942 343.246 17.2101 343.253 18.4712V27.4204H345.941V29.091H337.891V27.4204H340.59V17.6539C340.59 15.423 340.241 13.958 339.562 13.2641C339.243 12.9781 338.87 12.7593 338.464 12.6206C338.059 12.482 337.63 12.4264 337.203 12.457C335.767 12.457 334.482 13.1424 333.347 14.5132C332.213 15.8839 331.648 17.1998 331.651 18.4609V27.4204H334.345V29.091H325.832V27.4204H328.978V12.2463H325.827V10.5706H331.548V15.3819C333.508 11.9207 335.774 10.1919 338.344 10.1953C341.335 10.1953 342.955 11.895 343.201 15.2945Z" fill="#FCFCFC"/>
</g>
<defs>
<clipPath id="clip0_44_5051">
<rect width="358" height="35.6633" fill="white" transform="translate(0 0.120117)"/>
</clipPath>
</defs>
</svg>
