<svg width="25" height="26" viewBox="0 0 25 26" fill="none" xmlns="http://www.w3.org/2000/svg">
<g id="icon_check_topbar 1" clip-path="url(#clip0_301_3198)">
<g id="Laag 2">
<g id="Layer 1">
<path id="Vector" d="M11.3867 17.9189C11.2266 17.919 11.0682 17.8875 10.9204 17.8261C10.7725 17.7648 10.6383 17.6749 10.5253 17.5615L7.3515 14.3828C7.23756 14.2699 7.14706 14.1355 7.08521 13.9874C7.02335 13.8394 6.99137 13.6806 6.99109 13.5201C6.99081 13.3597 7.02224 13.2007 7.08358 13.0525C7.14492 12.9042 7.23495 12.7695 7.3485 12.6562C7.46205 12.5428 7.59689 12.453 7.74526 12.3919C7.89362 12.3308 8.0526 12.2997 8.21305 12.3002C8.3735 12.3008 8.53226 12.333 8.68021 12.3951C8.82815 12.4572 8.96237 12.548 9.07514 12.6621L11.3881 14.9785L16.5219 9.84864C16.7508 9.6223 17.0599 9.49577 17.3818 9.49671C17.7036 9.49764 18.012 9.62597 18.2396 9.85363C18.4671 10.0813 18.5953 10.3898 18.596 10.7116C18.5968 11.0335 18.4701 11.3426 18.2436 11.5713L12.2475 17.5625C12.1345 17.6756 12.0003 17.7652 11.8525 17.8264C11.7048 17.8875 11.5465 17.919 11.3867 17.9189Z" fill="#151E4A"/>
<path id="Vector_2" d="M12.5 1.23242C14.0731 1.23043 15.6305 1.54425 17.0801 2.15527C18.4796 2.74455 19.7503 3.60215 20.8203 4.67969C21.8947 5.7523 22.7519 7.0223 23.3447 8.41992C24.2578 10.5769 24.5054 12.9575 24.0556 15.2562C23.6058 17.5549 22.4791 19.6666 20.8203 21.3203C19.164 22.9749 17.0523 24.0986 14.7548 24.5482C12.4572 24.9978 10.0778 24.7529 7.91992 23.8447C6.52036 23.2554 5.24971 22.3978 4.17969 21.3203C2.52515 19.664 1.40142 17.5523 0.95182 15.2548C0.502218 12.9572 0.747113 10.5778 1.65527 8.41992C2.24455 7.02036 3.10215 5.74971 4.17969 4.67969C5.27024 3.58417 6.56697 2.71551 7.99504 2.12383C9.4231 1.53216 10.9542 1.22919 12.5 1.23242ZM12.5 0.5C5.5957 0.5 0 6.0957 0 13C0 19.9043 5.5957 25.5 12.5 25.5C19.4043 25.5 25 19.9043 25 13C25 6.0957 19.4043 0.5 12.5 0.5Z" fill="#151E4A"/>
</g>
</g>
</g>
<defs>
<clipPath id="clip0_301_3198">
<rect width="25" height="25" fill="white" transform="translate(0 0.5)"/>
</clipPath>
</defs>
</svg>
