<svg width="16" height="10" viewBox="0 0 16 10" fill="none" xmlns="http://www.w3.org/2000/svg">
<g id="icon_eye 1" clip-path="url(#clip0_301_3175)">
<g id="Laag 2">
<g id="&#208;&#161;&#208;&#187;&#208;&#190;&#208;&#185; 1">
<path id="Vector" d="M7.99999 0.711334C4.09621 0.711334 0.316144 4.43642 0.164941 4.60137C0.112573 4.65371 0.0710307 4.71585 0.0426875 4.78425C0.0143442 4.85264 -0.000244141 4.92596 -0.000244141 4.99999C-0.000244141 5.07403 0.0143442 5.14734 0.0426875 5.21574C0.0710307 5.28414 0.112573 5.34628 0.164941 5.39862C0.32989 5.56357 4.09621 9.28865 7.99999 9.28865C11.9038 9.28865 15.6838 5.56357 15.835 5.39862C15.8874 5.34628 15.929 5.28414 15.9573 5.21574C15.9856 5.14734 16.0002 5.07403 16.0002 4.99999C16.0002 4.92596 15.9856 4.85264 15.9573 4.78425C15.929 4.71585 15.8874 4.65371 15.835 4.60137C15.6838 4.43642 11.9175 0.711334 7.99999 0.711334ZM7.99999 8.14776C5.2646 8.14776 2.44673 5.92096 1.38831 4.98625C2.44673 4.05154 5.2646 1.82474 7.99999 1.82474C10.7354 1.82474 13.5533 4.05154 14.6117 4.98625C13.5533 5.92096 10.7354 8.14776 7.99999 8.14776Z" fill="#BD944E"/>
<path id="Vector_2" d="M5.97949 4.98624C5.97949 5.3886 6.09881 5.78192 6.32234 6.11647C6.54588 6.45102 6.86361 6.71177 7.23534 6.86575C7.60707 7.01972 8.01611 7.06001 8.41074 6.98151C8.80537 6.90302 9.16786 6.70926 9.45237 6.42475C9.73688 6.14024 9.93063 5.77775 10.0091 5.38312C10.0876 4.98849 10.0473 4.57945 9.89336 4.20772C9.73939 3.83599 9.47864 3.51827 9.14409 3.29473C8.80954 3.07119 8.41622 2.95187 8.01386 2.95187C7.47464 2.95296 6.95783 3.16765 6.57655 3.54893C6.19527 3.93021 5.98058 4.44703 5.97949 4.98624Z" fill="#BD944E"/>
<path id="Vector_3" d="M6.25439 4.01031C6.25439 4.20333 6.31163 4.39202 6.41887 4.55251C6.52611 4.71301 6.67853 4.8381 6.85686 4.91196C7.03519 4.98583 7.23142 5.00516 7.42074 4.9675C7.61005 4.92984 7.78395 4.83689 7.92044 4.70041C8.05693 4.56392 8.14988 4.39002 8.18753 4.20071C8.22519 4.01139 8.20586 3.81516 8.132 3.63683C8.05813 3.4585 7.93304 3.30608 7.77255 3.19884C7.61205 3.0916 7.42336 3.03436 7.23034 3.03436C6.97184 3.03545 6.72423 3.13862 6.54144 3.32141C6.35865 3.5042 6.25548 3.75181 6.25439 4.01031Z" fill="#F4F9F9"/>
</g>
</g>
</g>
<defs>
<clipPath id="clip0_301_3175">
<rect width="16" height="8.57732" fill="white" transform="translate(0 0.711334)"/>
</clipPath>
</defs>
</svg>
