<svg width="16" height="22" viewBox="0 0 16 22" fill="none" xmlns="http://www.w3.org/2000/svg">
<g id="social_pinterest_logo_icon 1" clip-path="url(#clip0_15_260)">
<g id="Laag 2">
<g id="Laag 1">
<path id="Icon awesome-pinterest-p" d="M8.49778 0.600006C4.22519 0.600006 0 3.45038 0 8.06075C0 10.9941 1.64741 12.6652 2.64889 12.6652C3.0637 12.6652 3.30074 11.5096 3.30074 11.1896C3.30074 10.8696 2.31704 9.97482 2.31704 8.36297C2.30369 7.62393 2.43617 6.88951 2.70689 6.20172C2.97761 5.51392 3.38127 4.88624 3.89477 4.35458C4.40828 3.82291 5.02155 3.39769 5.69953 3.10324C6.3775 2.80878 7.10687 2.65087 7.84593 2.63852H8.16C10.9985 2.63852 13.1022 4.25038 13.1022 7.21334C13.1022 9.42964 12.2133 13.5778 9.33926 13.5778C9.09593 13.5881 8.85296 13.5502 8.6243 13.4664C8.39565 13.3825 8.18581 13.2543 8.00685 13.0891C7.82789 12.9239 7.68333 12.725 7.58148 12.5038C7.47962 12.2826 7.42248 12.0434 7.41333 11.8V11.7467C7.41333 10.1704 8.50963 8.64741 8.50963 7.00593C8.50963 4.24445 4.59852 4.74815 4.59852 8.07852C4.57471 8.80483 4.71234 9.52738 5.00148 10.1941C4.40889 12.6652 3.25333 16.357 3.25333 18.9052C3.25333 19.6874 3.36593 20.4637 3.43704 21.2756C3.57926 21.4356 3.50815 21.4178 3.72741 21.3407C5.82519 18.4607 5.74815 17.8978 6.69037 14.1348C7.2 15.1126 8.52741 15.6341 9.5763 15.6341C14.0148 15.64 16 11.3259 16 7.43852C16 3.30223 12.4444 0.600006 8.49778 0.600006Z" fill="#009FE3"/>
</g>
</g>
</g>
<defs>
<clipPath id="clip0_15_260">
<rect width="16" height="20.8" fill="white" transform="translate(0 0.600006)"/>
</clipPath>
</defs>
</svg>
