<svg width="20" height="21" viewBox="0 0 20 21" fill="none" xmlns="http://www.w3.org/2000/svg">
<path d="M9.16663 14.2598H10.8333V10.9264H14.1666V9.25977H10.8333V5.92643H9.16663V9.25977H5.83329V10.9264H9.16663V14.2598ZM9.99996 18.4264C8.84718 18.4264 7.76385 18.2075 6.74996 17.7698C5.73607 17.3325 4.85413 16.7389 4.10413 15.9889C3.35413 15.2389 2.76051 14.357 2.32329 13.3431C1.88551 12.3292 1.66663 11.2459 1.66663 10.0931C1.66663 8.94032 1.88551 7.85699 2.32329 6.8431C2.76051 5.82921 3.35413 4.94727 4.10413 4.19727C4.85413 3.44727 5.73607 2.85338 6.74996 2.4156C7.76385 1.97838 8.84718 1.75977 9.99996 1.75977C11.1527 1.75977 12.2361 1.97838 13.25 2.4156C14.2638 2.85338 15.1458 3.44727 15.8958 4.19727C16.6458 4.94727 17.2394 5.82921 17.6766 6.8431C18.1144 7.85699 18.3333 8.94032 18.3333 10.0931C18.3333 11.2459 18.1144 12.3292 17.6766 13.3431C17.2394 14.357 16.6458 15.2389 15.8958 15.9889C15.1458 16.7389 14.2638 17.3325 13.25 17.7698C12.2361 18.2075 11.1527 18.4264 9.99996 18.4264Z" fill="#102A66" fill-opacity="0.4"/>
</svg>
