<svg width="342" height="642" viewBox="0 0 342 642" fill="none" xmlns="http://www.w3.org/2000/svg">
<g opacity="0.2" clip-path="url(#clip0_50_8570)">
<path d="M325.65 582.855L326.219 595.815L346.673 595.994L348.414 376.96L358.982 377.052L358.989 356.766L348.762 356.677L349.895 226.792L360.291 227.053L360.47 206.598L350.071 206.678L350.318 178.383C358.587 185.132 368.574 189.442 379.158 190.826C389.742 192.21 400.501 190.614 410.228 186.218C419.954 181.822 428.262 174.8 434.216 165.941C440.17 157.082 443.535 146.738 443.932 136.072C443.975 120.909 438.039 106.341 427.411 95.5257C416.784 84.7108 402.321 78.5214 387.16 78.2997L383.238 78.436C384.89 74.2691 385.682 69.8113 385.568 65.3304C385.615 53.3226 380.92 41.7817 372.504 33.217C364.087 24.6524 352.63 19.7566 340.623 19.5942C328.616 19.5732 317.075 24.2437 308.462 32.6098C299.947 41.0757 295.076 52.5331 294.887 64.5391C294.891 69.0038 295.601 73.4397 296.988 77.6833L293.069 77.4787C283.714 77.079 274.403 78.9751 265.95 83.0015C257.496 87.0279 250.156 93.0622 244.571 100.578C238.986 108.093 235.325 116.861 233.908 126.117C232.49 135.373 233.36 144.835 236.441 153.677C239.522 162.52 244.72 170.474 251.582 176.845C258.444 183.216 266.761 187.811 275.807 190.229C284.853 192.646 294.353 192.813 303.479 190.715C312.604 188.616 321.078 184.316 328.159 178.19L329.954 206.844L320.409 206.76L320.233 226.874L328.581 227.458L327.448 357.344L319.45 355.74L319.102 376.022L328.467 377.297L327.753 459.115L244.065 457.873L242.804 582.814L325.65 582.855ZM316.201 63.8728C316.55 60.0954 317.786 56.4538 319.807 53.2439C321.829 50.034 324.579 47.3466 327.835 45.3999C331.091 43.4533 334.76 42.3025 338.545 42.0412C342.329 41.7798 346.122 42.4152 349.614 43.8958C353.107 45.3763 356.201 47.6601 358.644 50.5616C361.088 53.4631 362.812 56.9004 363.677 60.5938C364.542 64.2873 364.523 68.1328 363.622 71.8176C362.721 75.5024 360.963 78.9225 358.491 81.7998C356.323 83.9186 353.834 85.6804 351.115 87.0199L351.258 70.6564L330.804 70.4779L330.664 86.5005C327.903 85.3748 325.418 83.6669 323.377 81.4934C321.048 79.1968 319.211 76.4503 317.977 73.421C316.744 70.3917 316.139 67.143 316.201 63.8728ZM387.841 97.9093C392.735 97.7811 397.604 98.6413 402.157 100.438C406.711 102.236 410.855 104.933 414.342 108.369C418.685 112.784 421.758 118.287 423.238 124.3L412.498 124.376L412.491 144.662L423.059 144.754C421.556 150.774 418.376 156.243 413.887 160.527C409.567 164.794 404.26 167.928 398.437 169.651C392.615 171.374 386.457 171.633 380.511 170.404C374.564 169.176 369.013 166.499 364.35 162.61C359.686 158.722 356.055 153.742 353.779 148.113C351.502 142.484 350.65 136.38 351.299 130.342C351.948 124.305 354.077 118.521 357.498 113.505C360.919 108.488 365.525 104.393 370.908 101.584C376.292 98.7755 382.285 97.339 388.357 97.4024L387.841 97.9093ZM293.108 170.724C284.895 170.807 276.895 168.109 270.409 163.07C263.923 158.031 259.332 150.946 257.382 142.967L268.291 143.062L268.466 122.949L257.557 122.854C259.514 116.34 263.245 110.499 268.333 105.985C273.421 101.471 279.665 98.4622 286.366 97.2956C293.067 96.1291 299.96 96.8507 306.274 99.3797C312.589 101.909 318.074 106.145 322.117 111.615C326.16 117.085 328.601 123.572 329.166 130.35C329.731 137.128 328.399 143.93 325.317 149.993C322.236 156.057 317.528 161.144 311.72 164.684C305.912 168.224 299.234 170.077 292.432 170.036L293.108 170.724ZM263.889 510.72L286.389 510.916L286.219 530.348L263.719 530.152L263.889 510.72ZM306.326 550.809L306.85 490.809L263.896 490.435L264.172 478.334L327.746 479.4L327.011 563.604L263.944 563.054L263.879 550.95L306.326 550.809Z" fill="#BD944E"/>
</g>
<defs>
<clipPath id="clip0_50_8570">
<rect width="478.999" height="428.616" fill="white" transform="translate(642.068 305.71) rotate(135.5)"/>
</clipPath>
</defs>
</svg>
