<svg width="25" height="25" viewBox="0 0 25 25" fill="none" xmlns="http://www.w3.org/2000/svg">
<g id="icon_check_topbar 1" clip-path="url(#clip0_45_6017)">
<g id="Laag 2">
<g id="Layer 1">
<path id="Vector" d="M11.3867 17.4189C11.2267 17.419 11.0682 17.3875 10.9204 17.3261C10.7726 17.2648 10.6384 17.1749 10.5254 17.0615L7.35156 13.8828C7.23762 13.7699 7.14712 13.6355 7.08527 13.4874C7.02341 13.3394 6.99143 13.1806 6.99115 13.0201C6.99087 12.8597 7.0223 12.7007 7.08364 12.5525C7.14498 12.4042 7.23501 12.2695 7.34856 12.1562C7.46211 12.0428 7.59695 11.953 7.74532 11.8919C7.89369 11.8308 8.05266 11.7997 8.21311 11.8002C8.37356 11.8008 8.53232 11.833 8.68027 11.8951C8.82821 11.9572 8.96243 12.048 9.0752 12.1621L11.3882 14.4785L16.522 9.34864C16.7508 9.1223 17.06 8.99577 17.3818 8.99671C17.7037 8.99764 18.0121 9.12597 18.2396 9.35363C18.4672 9.58128 18.5953 9.88976 18.5961 10.2116C18.5968 10.5335 18.4701 10.8426 18.2437 11.0713L12.2476 17.0625C12.1345 17.1756 12.0003 17.2652 11.8526 17.3264C11.7049 17.3875 11.5466 17.419 11.3867 17.4189Z" fill="#BD944E"/>
<path id="Vector_2" d="M12.5 0.732422C14.0731 0.730429 15.6305 1.04425 17.0801 1.65527C18.4796 2.24455 19.7503 3.10215 20.8203 4.17969C21.8947 5.2523 22.7519 6.5223 23.3447 7.91992C24.2578 10.0769 24.5054 12.4575 24.0556 14.7562C23.6058 17.0549 22.4791 19.1666 20.8203 20.8203C19.164 22.4749 17.0523 23.5986 14.7548 24.0482C12.4572 24.4978 10.0778 24.2529 7.91992 23.3447C6.52036 22.7554 5.24971 21.8978 4.17969 20.8203C2.52515 19.164 1.40142 17.0523 0.95182 14.7548C0.502218 12.4572 0.747113 10.0778 1.65527 7.91992C2.24455 6.52036 3.10215 5.24971 4.17969 4.17969C5.27024 3.08417 6.56697 2.21551 7.99504 1.62383C9.4231 1.03216 10.9542 0.729192 12.5 0.732422ZM12.5 0C5.5957 0 0 5.5957 0 12.5C0 19.4043 5.5957 25 12.5 25C19.4043 25 25 19.4043 25 12.5C25 5.5957 19.4043 0 12.5 0Z" fill="#BD944E"/>
</g>
</g>
</g>
<defs>
<clipPath id="clip0_45_6017">
<rect width="25" height="25" fill="white"/>
</clipPath>
</defs>
</svg>
