<svg width="16" height="16" viewBox="0 0 16 16" fill="none" xmlns="http://www.w3.org/2000/svg">
<g id="mdi:shield-lock">
<path id="Vector" d="M8 0.666626L2 3.33329V7.33329C2 11.0333 4.56 14.4933 8 15.3333C11.44 14.4933 14 11.0333 14 7.33329V3.33329L8 0.666626ZM8 4.66663C8.93333 4.66663 9.86667 5.39996 9.86667 6.33329V7.33329C10.2667 7.33329 10.6667 7.73329 10.6667 8.19996V10.5333C10.6667 10.9333 10.2667 11.3333 9.8 11.3333H6.13333C5.73333 11.3333 5.33333 10.9333 5.33333 10.4666V8.13329C5.33333 7.73329 5.73333 7.33329 6.13333 7.33329V6.33329C6.13333 5.39996 7.06667 4.66663 8 4.66663ZM8 5.46663C7.46667 5.46663 7 5.79996 7 6.33329V7.33329H9V6.33329C9 5.79996 8.53333 5.46663 8 5.46663Z" fill="#102A66"/>
</g>
</svg>
