<svg width="32" height="32" viewBox="0 0 32 32" fill="none" xmlns="http://www.w3.org/2000/svg">
<path d="M23.4663 8.43743C22.4884 7.44962 21.3236 6.66641 20.0398 6.13349C18.756 5.60057 17.379 5.3286 15.989 5.33344C10.165 5.33344 5.41834 10.0801 5.41834 15.9041C5.41834 17.7707 5.90901 19.5841 6.82634 21.1841L5.33301 26.6667L10.933 25.1947C12.4797 26.0374 14.2183 26.4854 15.989 26.4854C21.813 26.4854 26.5596 21.7387 26.5596 15.9147C26.5596 13.0881 25.4609 10.4321 23.4663 8.43743ZM15.989 24.6934C14.4103 24.6934 12.8637 24.2667 11.509 23.4667L11.189 23.2747L7.861 24.1494L8.74633 20.9067L8.533 20.5761C7.65593 19.1755 7.19022 17.5566 7.189 15.9041C7.189 11.0614 11.1357 7.11477 15.9783 7.11477C18.325 7.11477 20.533 8.0321 22.1863 9.69609C23.0049 10.511 23.6537 11.4803 24.095 12.5477C24.5362 13.6152 24.7613 14.7597 24.757 15.9147C24.7783 20.7574 20.8316 24.6934 15.989 24.6934ZM20.8103 18.1227C20.5436 17.9947 19.2423 17.3547 19.0076 17.2587C18.7623 17.1734 18.5916 17.1307 18.4103 17.3867C18.229 17.6534 17.7276 18.2507 17.5783 18.4214C17.429 18.6027 17.269 18.6241 17.0023 18.4854C16.7356 18.3574 15.8823 18.0694 14.8796 17.1734C14.0903 16.4694 13.5676 15.6054 13.4076 15.3387C13.2583 15.0721 13.3863 14.9334 13.525 14.7947C13.6423 14.6774 13.7916 14.4854 13.9196 14.3361C14.0476 14.1867 14.101 14.0694 14.1863 13.8987C14.2716 13.7174 14.229 13.5681 14.165 13.4401C14.101 13.3121 13.5676 12.0108 13.3543 11.4774C13.141 10.9654 12.917 11.0294 12.757 11.0188H12.245C12.0637 11.0188 11.7863 11.0828 11.541 11.3494C11.3063 11.6161 10.6237 12.2561 10.6237 13.5574C10.6237 14.8587 11.573 16.1174 11.701 16.2881C11.829 16.4694 13.5676 19.1361 16.213 20.2774C16.8423 20.5547 17.333 20.7147 17.717 20.8321C18.3463 21.0347 18.9223 21.0027 19.381 20.9387C19.893 20.8641 20.949 20.2987 21.1623 19.6801C21.3863 19.0614 21.3863 18.5387 21.3116 18.4214C21.237 18.3041 21.077 18.2507 20.8103 18.1227Z" fill="#FCFCFC"/>
</svg>
